<svg width="236" height="43" viewBox="0 0 236 43" fill="none" xmlns="http://www.w3.org/2000/svg">
<path d="M21.9293 14.9113L24.878 11.9626L35.5822 22.3979L32.5066 25.4735L21.9293 14.9113Z" fill="#111D4A"/>
<path d="M24.9092 31.8338C22.9453 33.8126 20.4383 35.1639 17.7058 35.7165C14.9732 36.2692 12.1381 35.9983 9.55969 34.9382C6.98124 33.8781 4.77549 32.0765 3.22189 29.7616C1.66829 27.4468 0.836773 24.7228 0.832683 21.935C0.828595 19.1471 1.65212 16.4208 3.19892 14.1014C4.74572 11.782 6.94618 9.97389 9.52151 8.90623C12.0968 7.83856 14.9311 7.55936 17.6653 8.10399C20.3994 8.64862 22.9104 9.99258 24.88 11.9656L21.9298 14.9108C20.5433 13.5219 18.7756 12.5758 16.8509 12.1924C14.9261 11.809 12.9309 12.0055 11.118 12.7571C9.30505 13.5087 7.75601 14.7815 6.66712 16.4143C5.57823 18.0471 4.9985 19.9663 5.00138 21.9289C5.00425 23.8914 5.58961 25.8089 6.68329 27.4385C7.77696 29.0681 9.32973 30.3364 11.1449 31.0826C12.96 31.8289 14.9558 32.0196 16.8794 31.6305C18.803 31.2415 20.5678 30.2902 21.9503 28.8973L24.9092 31.8338Z" fill="#111D4A"/>
<path d="M32.1395 29.1382L29.2152 32.1111L18.4253 21.7644L21.4755 18.6636L32.1395 29.1382Z" fill="#111D4A"/>
<path d="M29.0203 12.2409C30.9678 10.246 33.4636 8.87406 36.1915 8.29891C38.9194 7.72376 41.7566 7.97128 44.3437 9.0101C46.9308 10.0489 49.1513 11.8323 50.7239 14.1343C52.2965 16.4362 53.1505 19.1532 53.1775 21.9409C53.2046 24.7287 52.4036 27.4617 50.8759 29.7938C49.3483 32.1259 47.1628 33.952 44.5964 35.0409C42.0299 36.1297 39.198 36.4322 36.4595 35.9102C33.721 35.3881 31.199 34.0649 29.2132 32.1082L32.139 29.1388C33.537 30.5162 35.3123 31.4477 37.2402 31.8152C39.168 32.1827 41.1615 31.9698 42.9682 31.2033C44.7749 30.4367 46.3134 29.1512 47.3888 27.5095C48.4642 25.8678 49.0281 23.9439 49.009 21.9814C48.99 20.019 48.3889 18.1063 47.2818 16.4858C46.1747 14.8653 44.6116 13.6099 42.7903 12.8786C40.9691 12.1473 38.9718 11.9731 37.0515 12.3779C35.1311 12.7828 33.3742 13.7486 32.0033 15.1529L29.0203 12.2409Z" fill="#111D4A"/>
<rect x="66" y="2" width="1" height="40" fill="#111D4A"/>
<path d="M81.29 35V10.5H85.84V31.15H98.65V35H81.29ZM110.436 35.245C108.36 35.245 106.54 34.8367 104.976 34.02C103.436 33.18 102.235 32.0367 101.371 30.59C100.531 29.1433 100.111 27.4983 100.111 25.655C100.111 23.7883 100.52 22.1433 101.336 20.72C102.176 19.2733 103.32 18.1417 104.766 17.325C106.236 16.5083 107.905 16.1 109.771 16.1C111.591 16.1 113.213 16.4967 114.636 17.29C116.06 18.0833 117.18 19.2033 117.996 20.65C118.813 22.0967 119.221 23.8 119.221 25.76C119.221 25.9467 119.21 26.1567 119.186 26.39C119.186 26.6233 119.175 26.845 119.151 27.055H103.576V24.15H116.841L115.126 25.06C115.15 23.9867 114.928 23.0417 114.461 22.225C113.995 21.4083 113.353 20.7667 112.536 20.3C111.743 19.8333 110.821 19.6 109.771 19.6C108.698 19.6 107.753 19.8333 106.936 20.3C106.143 20.7667 105.513 21.42 105.046 22.26C104.603 23.0767 104.381 24.045 104.381 25.165V25.865C104.381 26.985 104.638 27.9767 105.151 28.84C105.665 29.7033 106.388 30.3683 107.321 30.835C108.255 31.3017 109.328 31.535 110.541 31.535C111.591 31.535 112.536 31.3717 113.376 31.045C114.216 30.7183 114.963 30.205 115.616 29.505L117.961 32.2C117.121 33.18 116.06 33.9383 114.776 34.475C113.516 34.9883 112.07 35.245 110.436 35.245ZM134.426 35V31.22L134.181 30.415V23.8C134.181 22.5167 133.796 21.525 133.026 20.825C132.256 20.1017 131.089 19.74 129.526 19.74C128.476 19.74 127.438 19.9033 126.411 20.23C125.408 20.5567 124.556 21.0117 123.856 21.595L122.141 18.41C123.144 17.64 124.334 17.0683 125.711 16.695C127.111 16.2983 128.558 16.1 130.051 16.1C132.758 16.1 134.846 16.7533 136.316 18.06C137.809 19.3433 138.556 21.3383 138.556 24.045V35H134.426ZM128.546 35.245C127.146 35.245 125.921 35.0117 124.871 34.545C123.821 34.055 123.004 33.39 122.421 32.55C121.861 31.6867 121.581 30.7183 121.581 29.645C121.581 28.595 121.826 27.65 122.316 26.81C122.829 25.97 123.658 25.305 124.801 24.815C125.944 24.325 127.461 24.08 129.351 24.08H134.776V26.985H129.666C128.173 26.985 127.169 27.23 126.656 27.72C126.143 28.1867 125.886 28.77 125.886 29.47C125.886 30.2633 126.201 30.8933 126.831 31.36C127.461 31.8267 128.336 32.06 129.456 32.06C130.529 32.06 131.486 31.815 132.326 31.325C133.189 30.835 133.808 30.1117 134.181 29.155L134.916 31.78C134.496 32.8767 133.738 33.7283 132.641 34.335C131.568 34.9417 130.203 35.245 128.546 35.245ZM144.171 35V16.31H148.336V21.455L147.846 19.95C148.406 18.69 149.281 17.7333 150.471 17.08C151.684 16.4267 153.189 16.1 154.986 16.1V20.265C154.799 20.2183 154.624 20.195 154.461 20.195C154.297 20.1717 154.134 20.16 153.971 20.16C152.314 20.16 150.996 20.65 150.016 21.63C149.036 22.5867 148.546 24.0217 148.546 25.935V35H144.171ZM169.302 16.1C170.795 16.1 172.125 16.3917 173.292 16.975C174.482 17.5583 175.415 18.4567 176.092 19.67C176.769 20.86 177.107 22.4 177.107 24.29V35H172.732V24.85C172.732 23.1933 172.335 21.9567 171.542 21.14C170.772 20.3233 169.687 19.915 168.287 19.915C167.26 19.915 166.35 20.125 165.557 20.545C164.764 20.965 164.145 21.595 163.702 22.435C163.282 23.2517 163.072 24.29 163.072 25.55V35H158.697V16.31H162.862V21.35L162.127 19.81C162.78 18.62 163.725 17.71 164.962 17.08C166.222 16.4267 167.669 16.1 169.302 16.1ZM182.657 35V16.31H187.032V35H182.657ZM184.862 13.23C184.045 13.23 183.369 12.9733 182.832 12.46C182.319 11.9467 182.062 11.3283 182.062 10.605C182.062 9.85833 182.319 9.24 182.832 8.75C183.369 8.23667 184.045 7.98 184.862 7.98C185.679 7.98 186.344 8.225 186.857 8.715C187.394 9.18167 187.662 9.77667 187.662 10.5C187.662 11.27 187.405 11.9233 186.892 12.46C186.379 12.9733 185.702 13.23 184.862 13.23ZM203.379 16.1C204.873 16.1 206.203 16.3917 207.369 16.975C208.559 17.5583 209.493 18.4567 210.169 19.67C210.846 20.86 211.184 22.4 211.184 24.29V35H206.809V24.85C206.809 23.1933 206.413 21.9567 205.619 21.14C204.849 20.3233 203.764 19.915 202.364 19.915C201.338 19.915 200.428 20.125 199.634 20.545C198.841 20.965 198.223 21.595 197.779 22.435C197.359 23.2517 197.149 24.29 197.149 25.55V35H192.774V16.31H196.939V21.35L196.204 19.81C196.858 18.62 197.803 17.71 199.039 17.08C200.299 16.4267 201.746 16.1 203.379 16.1ZM225.238 42.035C223.512 42.035 221.82 41.8017 220.163 41.335C218.53 40.8917 217.188 40.2383 216.138 39.375L218.098 36.085C218.915 36.7617 219.942 37.2983 221.178 37.695C222.438 38.115 223.71 38.325 224.993 38.325C227.047 38.325 228.552 37.8467 229.508 36.89C230.465 35.9567 230.943 34.545 230.943 32.655V29.33L231.293 25.095L231.153 20.86V16.31H235.318V32.165C235.318 35.5483 234.455 38.0333 232.728 39.62C231.002 41.23 228.505 42.035 225.238 42.035ZM224.678 34.16C222.905 34.16 221.295 33.7867 219.848 33.04C218.425 32.27 217.293 31.2083 216.453 29.855C215.637 28.5017 215.228 26.915 215.228 25.095C215.228 23.2983 215.637 21.7233 216.453 20.37C217.293 19.0167 218.425 17.9667 219.848 17.22C221.295 16.4733 222.905 16.1 224.678 16.1C226.265 16.1 227.688 16.415 228.948 17.045C230.208 17.675 231.212 18.655 231.958 19.985C232.728 21.315 233.113 23.0183 233.113 25.095C233.113 27.1717 232.728 28.8867 231.958 30.24C231.212 31.57 230.208 32.5617 228.948 33.215C227.688 33.845 226.265 34.16 224.678 34.16ZM225.343 30.45C226.44 30.45 227.42 30.2283 228.283 29.785C229.147 29.3183 229.812 28.6883 230.278 27.895C230.768 27.0783 231.013 26.145 231.013 25.095C231.013 24.045 230.768 23.1233 230.278 22.33C229.812 21.5133 229.147 20.895 228.283 20.475C227.42 20.0317 226.44 19.81 225.343 19.81C224.247 19.81 223.255 20.0317 222.368 20.475C221.505 20.895 220.828 21.5133 220.338 22.33C219.872 23.1233 219.638 24.045 219.638 25.095C219.638 26.145 219.872 27.0783 220.338 27.895C220.828 28.6883 221.505 29.3183 222.368 29.785C223.255 30.2283 224.247 30.45 225.343 30.45Z" fill="#7D1F1F"/>
<path d="M183.424 13.2074C181.401 12.7833 179.49 11.9397 177.814 10.731C177.714 10.6597 177.637 10.561 177.592 10.4467C177.548 10.3325 177.537 10.2077 177.562 10.0875L178.586 5.03902C178.619 4.87367 178.717 4.72845 178.858 4.63522C178.999 4.54199 179.171 4.50837 179.336 4.54173L190.565 6.81918C190.73 6.85292 190.875 6.95086 190.969 7.09153C191.062 7.2322 191.095 7.4041 191.062 7.56953L190.038 12.618C190.014 12.7384 189.956 12.8492 189.87 12.937C189.784 13.0247 189.675 13.0857 189.555 13.1124C187.54 13.5725 185.452 13.6049 183.424 13.2074Z" fill="#111D4A"/>
<path d="M184.252 9.11723C184.169 9.10041 184.089 9.06713 184.019 9.01932L175.877 3.45663C175.772 3.3849 175.691 3.28336 175.644 3.1651C175.597 3.04685 175.587 2.9173 175.615 2.79316C175.642 2.66902 175.706 2.55598 175.799 2.46861C175.891 2.38124 176.008 2.32356 176.133 2.30299L185.723 0.731005C185.877 0.705436 186.036 0.737935 186.168 0.822244L194.267 5.98205C194.374 6.0501 194.458 6.14849 194.509 6.2646C194.56 6.38072 194.574 6.50929 194.551 6.63387C194.529 6.75845 194.469 6.87337 194.38 6.96393C194.292 7.05449 194.178 7.11657 194.054 7.14223L184.507 9.11704C184.423 9.13434 184.336 9.1344 184.252 9.11723Z" fill="#111D4A"/>
<path d="M178.416 11.2108C178.876 11.304 179.324 11.0071 179.417 10.5477C179.51 10.0884 179.213 9.64046 178.754 9.54729C178.294 9.45412 177.847 9.75098 177.753 10.2103C177.66 10.6697 177.957 11.1176 178.416 11.2108Z" fill="#7D1F1F"/>
<path opacity="0.2" d="M194.193 6.61514L184.646 8.58995C184.571 8.60535 184.495 8.60559 184.42 8.59066C184.345 8.57573 184.275 8.54594 184.212 8.50307L176.07 2.94048C175.967 2.87175 175.891 2.77083 175.852 2.65366C175.799 2.71378 175.759 2.7845 175.735 2.86113C175.712 2.93776 175.705 3.01854 175.715 3.09811C175.725 3.17768 175.751 3.25422 175.793 3.32264C175.835 3.39107 175.891 3.44982 175.957 3.49499L184.1 9.05757C184.162 9.10044 184.233 9.13023 184.308 9.14516C184.382 9.16009 184.459 9.15985 184.533 9.14445L194.08 7.16965C194.159 7.15352 194.233 7.12097 194.297 7.07415C194.362 7.02732 194.416 6.96728 194.456 6.89799C194.496 6.8287 194.521 6.75173 194.529 6.67218C194.537 6.59262 194.528 6.51228 194.503 6.43646C194.422 6.52852 194.313 6.59134 194.193 6.61514Z" fill="black"/>
<path d="M178.656 10.39C178.692 10.3974 178.731 10.39 178.762 10.3693C178.793 10.3485 178.815 10.3162 178.822 10.2795L179.763 5.64085L184.673 4.90256C184.71 4.91057 184.748 4.90368 184.78 4.88342C184.811 4.86316 184.834 4.83119 184.842 4.79454C184.85 4.75788 184.843 4.71955 184.822 4.68797C184.802 4.65639 184.77 4.63415 184.733 4.62615L179.824 5.36443C179.787 5.35613 179.749 5.35534 179.712 5.36211C179.675 5.36889 179.64 5.3831 179.609 5.40387C179.577 5.42427 179.55 5.45078 179.529 5.48182C179.508 5.51286 179.493 5.54782 179.486 5.58461L178.545 10.2232C178.538 10.26 178.545 10.2982 178.566 10.3295C178.587 10.3608 178.619 10.3825 178.656 10.39Z" fill="#7D1F1F"/>
</svg>
