<svg width="689" height="523" viewBox="0 0 689 523" fill="none" xmlns="http://www.w3.org/2000/svg">
<g clip-path="url(#clip0_2_128)">
<path d="M346.667 0H39.3065C28.8853 0.0117309 18.8944 4.15556 11.5255 11.5224C4.15667 18.8892 0.0117082 28.8773 0 39.2955V400.1C0.0117103 410.518 4.15668 420.506 11.5255 427.873C18.8944 435.239 28.8853 439.383 39.3065 439.395H346.667C357.089 439.383 367.079 435.239 374.448 427.873C381.817 420.506 385.962 410.518 385.974 400.1V39.2955C385.962 28.8773 381.817 18.8892 374.448 11.5224C367.079 4.15556 357.089 0.0117309 346.667 0Z" fill="#F2F2F2"/>
<path d="M346.668 11.3123H39.3065C31.8853 11.3206 24.7705 14.2715 19.523 19.5176C14.2754 24.7636 11.3237 31.8764 11.3154 39.2955V400.099C11.3237 407.519 14.2754 414.631 19.523 419.877C24.7705 425.123 31.8853 428.074 39.3065 428.083H346.668C354.089 428.074 361.204 425.123 366.451 419.877C371.698 414.631 374.65 407.518 374.658 400.099V39.2955C374.65 31.8765 371.698 24.7637 366.451 19.5177C361.204 14.2716 354.089 11.3207 346.668 11.3123Z" fill="white"/>
<path d="M300.41 116.224H144.979C143.243 116.224 141.578 115.535 140.351 114.308C139.123 113.081 138.434 111.416 138.434 109.681C138.434 107.945 139.123 106.281 140.351 105.054C141.578 103.826 143.243 103.137 144.979 103.137H300.41C301.269 103.137 302.12 103.306 302.915 103.635C303.709 103.964 304.43 104.446 305.038 105.054C305.646 105.661 306.128 106.383 306.457 107.177C306.786 107.97 306.955 108.821 306.955 109.681C306.955 110.54 306.786 111.391 306.457 112.185C306.128 112.979 305.646 113.7 305.038 114.308C304.43 114.915 303.709 115.397 302.915 115.726C302.12 116.055 301.269 116.224 300.41 116.224Z" fill="#F2F2F2"/>
<path d="M327.41 138.31H144.979C143.245 138.308 141.582 137.617 140.356 136.39C139.13 135.163 138.441 133.5 138.441 131.766C138.441 130.032 139.13 128.368 140.356 127.141C141.582 125.914 143.245 125.224 144.979 125.222H327.41C329.145 125.224 330.808 125.914 332.034 127.141C333.26 128.368 333.949 130.032 333.949 131.766C333.949 133.5 333.26 135.163 332.034 136.39C330.808 137.617 329.145 138.308 327.41 138.31Z" fill="#F2F2F2"/>
<path d="M300.41 215.199H144.979C143.243 215.199 141.578 214.509 140.351 213.282C139.123 212.055 138.434 210.39 138.434 208.655C138.434 206.919 139.123 205.255 140.351 204.028C141.578 202.801 143.243 202.111 144.979 202.111H300.41C301.269 202.111 302.12 202.28 302.915 202.609C303.709 202.938 304.43 203.42 305.038 204.028C305.646 204.635 306.128 205.357 306.457 206.151C306.786 206.945 306.955 207.796 306.955 208.655C306.955 209.514 306.786 210.365 306.457 211.159C306.128 211.953 305.646 212.674 305.038 213.282C304.43 213.89 303.709 214.372 302.915 214.701C302.12 215.029 301.269 215.199 300.41 215.199Z" fill="#F2F2F2"/>
<path d="M327.41 237.284H144.979C143.245 237.282 141.582 236.592 140.356 235.365C139.13 234.138 138.441 232.474 138.441 230.74C138.441 229.006 139.13 227.343 140.356 226.116C141.582 224.889 143.245 224.198 144.979 224.196H327.41C329.145 224.198 330.808 224.889 332.034 226.116C333.26 227.343 333.949 229.006 333.949 230.74C333.949 232.474 333.26 234.138 332.034 235.365C330.808 236.592 329.145 237.282 327.41 237.284Z" fill="#F2F2F2"/>
<path d="M300.41 314.173H144.979C143.243 314.173 141.578 313.483 140.351 312.256C139.123 311.029 138.434 309.365 138.434 307.629C138.434 305.894 139.123 304.229 140.351 303.002C141.578 301.775 143.243 301.085 144.979 301.085H300.41C301.27 301.084 302.122 301.253 302.917 301.581C303.712 301.91 304.434 302.392 305.043 302.999C305.651 303.607 306.134 304.329 306.464 305.123C306.793 305.918 306.963 306.769 306.963 307.629C306.963 308.489 306.793 309.341 306.464 310.135C306.134 310.929 305.651 311.651 305.043 312.259C304.434 312.867 303.712 313.348 302.917 313.677C302.122 314.005 301.27 314.174 300.41 314.173Z" fill="#F2F2F2"/>
<path d="M327.41 336.258H144.979C143.245 336.256 141.582 335.566 140.356 334.339C139.13 333.112 138.441 331.449 138.441 329.714C138.441 327.98 139.13 326.317 140.356 325.09C141.582 323.863 143.245 323.172 144.979 323.171H327.41C329.145 323.172 330.808 323.863 332.034 325.09C333.26 326.317 333.949 327.98 333.949 329.714C333.949 331.449 333.26 333.112 332.034 334.339C330.808 335.566 329.145 336.256 327.41 336.258Z" fill="#F2F2F2"/>
<path d="M110.162 148.335H55.1567C54.3245 148.334 53.5267 148.004 52.9383 147.415C52.3499 146.827 52.019 146.029 52.018 145.198V96.249C52.019 95.4171 52.3499 94.6195 52.9383 94.0313C53.5267 93.443 54.3245 93.1122 55.1567 93.1112H110.162C110.994 93.1122 111.792 93.443 112.38 94.0313C112.969 94.6195 113.3 95.4171 113.301 96.249V145.198C113.3 146.029 112.969 146.827 112.38 147.415C111.792 148.004 110.994 148.334 110.162 148.335Z" fill="#E6E6E6"/>
<path d="M110.162 247.31H55.1567C54.3245 247.309 53.5267 246.978 52.9383 246.39C52.3499 245.801 52.019 245.004 52.018 244.172V195.223C52.019 194.391 52.3499 193.594 52.9383 193.006C53.5267 192.417 54.3245 192.086 55.1567 192.085H110.162C110.994 192.086 111.792 192.417 112.38 193.006C112.969 193.594 113.3 194.391 113.301 195.223V244.172C113.3 245.004 112.969 245.801 112.38 246.39C111.792 246.978 110.994 247.309 110.162 247.31Z" fill="#E6E6E6"/>
<path d="M110.162 346.284H55.1567C54.3245 346.283 53.5267 345.952 52.9383 345.364C52.3499 344.776 52.019 343.978 52.018 343.146V294.197C52.019 293.366 52.3499 292.568 52.9383 291.98C53.5267 291.391 54.3245 291.061 55.1567 291.06H110.162C110.994 291.061 111.792 291.391 112.38 291.98C112.969 292.568 113.3 293.366 113.301 294.197V343.146C113.3 343.978 112.969 344.776 112.38 345.364C111.792 345.952 110.994 346.283 110.162 346.284Z" fill="#E6E6E6"/>
<path d="M617.432 341.236L619.87 319.917L632.096 213.027L634.535 191.709C635.707 181.357 632.724 170.963 626.24 162.807C619.756 154.651 610.301 149.399 599.948 148.204L322.527 116.49C312.172 115.318 301.774 118.3 293.616 124.782C285.458 131.264 280.205 140.717 279.009 151.067L279.003 151.122L261.912 300.538L261.906 300.593C260.734 310.945 263.717 321.34 270.201 329.496C276.685 337.652 286.14 342.903 296.493 344.099L573.914 375.812C584.269 376.984 594.667 374.002 602.825 367.52C610.983 361.038 616.236 351.585 617.432 341.236Z" fill="#E6E6E6"/>
<path d="M606.19 339.951L609.078 314.7L620.405 215.674L623.293 190.424C624.127 183.052 622.003 175.65 617.386 169.842C612.768 164.034 606.035 160.294 598.663 159.443L321.241 127.729C313.867 126.894 306.463 129.018 300.653 133.634C294.843 138.25 291.103 144.982 290.251 152.352L290.245 152.407L273.155 301.823L273.148 301.879C272.314 309.251 274.438 316.653 279.055 322.461C283.673 328.269 290.406 332.009 297.778 332.86L575.2 364.573C582.574 365.408 589.978 363.284 595.788 358.668C601.597 354.052 605.338 347.321 606.19 339.951Z" fill="white"/>
<path d="M560.78 204.472L406.356 186.819C405.502 186.722 404.674 186.458 403.922 186.041C403.17 185.625 402.507 185.064 401.971 184.391C401.436 183.718 401.038 182.946 400.801 182.119C400.564 181.293 400.492 180.428 400.59 179.573C400.688 178.719 400.953 177.892 401.37 177.14C401.788 176.389 402.35 175.726 403.023 175.192C403.697 174.657 404.469 174.26 405.296 174.024C406.124 173.788 406.989 173.717 407.844 173.816L562.268 191.469C563.991 191.668 565.565 192.543 566.644 193.901C567.722 195.259 568.218 196.99 568.021 198.713C567.823 200.436 566.95 202.011 565.593 203.091C564.235 204.17 562.504 204.667 560.78 204.472Z" fill="#E6E6E6"/>
<path d="M585.096 229.481L403.846 208.761C402.992 208.664 402.165 208.4 401.412 207.983C400.66 207.567 399.997 207.006 399.462 206.333C398.926 205.66 398.529 204.888 398.292 204.062C398.055 203.235 397.983 202.37 398.081 201.516C398.178 200.661 398.444 199.835 398.861 199.083C399.279 198.331 399.84 197.669 400.514 197.134C401.187 196.599 401.96 196.203 402.787 195.967C403.614 195.731 404.479 195.66 405.334 195.758L586.584 216.478C587.438 216.576 588.264 216.84 589.016 217.257C589.767 217.674 590.429 218.235 590.964 218.908C591.499 219.581 591.896 220.352 592.133 221.178C592.369 222.004 592.441 222.869 592.343 223.723C592.245 224.577 591.981 225.403 591.564 226.154C591.147 226.906 590.586 227.568 589.913 228.102C589.24 228.637 588.468 229.034 587.642 229.27C586.815 229.507 585.95 229.578 585.096 229.481Z" fill="#E6E6E6"/>
<path d="M580.043 273.244L312.824 242.696C311.101 242.498 309.527 241.623 308.448 240.265C307.37 238.906 306.874 237.176 307.071 235.452C307.269 233.729 308.142 232.155 309.499 231.075C310.857 229.995 312.588 229.498 314.312 229.694L581.53 260.241C582.385 260.338 583.212 260.602 583.964 261.019C584.717 261.435 585.379 261.996 585.915 262.669C586.45 263.342 586.848 264.114 587.085 264.94C587.322 265.767 587.393 266.632 587.296 267.487C587.198 268.341 586.933 269.167 586.515 269.919C586.098 270.671 585.536 271.333 584.863 271.868C584.189 272.403 583.417 272.799 582.59 273.035C581.763 273.271 580.897 273.342 580.043 273.244Z" fill="#E6E6E6"/>
<path d="M578.392 295.284L310.315 264.639C308.591 264.44 307.017 263.565 305.939 262.207C304.86 260.849 304.365 259.118 304.562 257.395C304.759 255.671 305.632 254.097 306.99 253.017C308.347 251.937 310.078 251.441 311.802 251.636L579.879 282.281C581.602 282.48 583.176 283.355 584.255 284.713C585.334 286.071 585.829 287.802 585.632 289.525C585.435 291.249 584.562 292.823 583.204 293.903C581.846 294.983 580.116 295.479 578.392 295.284Z" fill="#E6E6E6"/>
<path d="M575.125 316.24L307.907 285.692C307.052 285.595 306.225 285.331 305.472 284.915C304.72 284.498 304.057 283.937 303.521 283.264C302.986 282.591 302.588 281.819 302.351 280.993C302.114 280.166 302.043 279.301 302.14 278.447C302.238 277.592 302.503 276.766 302.921 276.014C303.338 275.262 303.9 274.6 304.574 274.065C305.247 273.531 306.02 273.134 306.847 272.898C307.674 272.662 308.539 272.591 309.394 272.689L576.612 303.237C578.336 303.436 579.91 304.31 580.988 305.669C582.067 307.027 582.562 308.758 582.365 310.481C582.168 312.204 581.295 313.778 579.937 314.858C578.58 315.938 576.849 316.435 575.125 316.24Z" fill="#E6E6E6"/>
<path d="M573.474 338.28L305.397 307.634C303.673 307.436 302.099 306.561 301.021 305.203C299.942 303.844 299.447 302.114 299.644 300.39C299.841 298.667 300.714 297.093 302.072 296.013C303.429 294.933 305.16 294.436 306.884 294.632L574.961 325.277C575.816 325.374 576.643 325.638 577.395 326.055C578.148 326.471 578.811 327.032 579.346 327.705C579.882 328.378 580.279 329.15 580.516 329.977C580.753 330.803 580.825 331.668 580.727 332.523C580.63 333.377 580.364 334.204 579.947 334.956C579.529 335.707 578.968 336.37 578.294 336.904C577.621 337.439 576.848 337.836 576.021 338.072C575.194 338.308 574.328 338.378 573.474 338.28Z" fill="#E6E6E6"/>
<path d="M368.115 214.767L313.466 208.52C312.639 208.425 311.884 208.005 311.367 207.354C310.849 206.703 310.611 205.873 310.704 205.046L316.267 156.415C316.362 155.588 316.782 154.833 317.433 154.316C318.085 153.798 318.915 153.56 319.742 153.654L374.391 159.901C375.218 159.996 375.973 160.416 376.49 161.067C377.008 161.718 377.246 162.548 377.153 163.375L371.59 212.006C371.495 212.833 371.075 213.588 370.424 214.105C369.772 214.623 368.942 214.861 368.115 214.767Z" fill="#92140C"/>
<path d="M688.183 522.871H509.313C509.097 522.871 508.889 522.785 508.736 522.631C508.583 522.478 508.497 522.271 508.497 522.054C508.497 521.837 508.583 521.63 508.736 521.477C508.889 521.324 509.097 521.237 509.313 521.237H688.183C688.4 521.237 688.608 521.324 688.761 521.477C688.914 521.63 689 521.837 689 522.054C689 522.271 688.914 522.478 688.761 522.631C688.608 522.785 688.4 522.871 688.183 522.871Z" fill="#3F3D56"/>
<path d="M621.018 210.926C620.743 212.011 620.71 213.143 620.92 214.243C621.13 215.342 621.578 216.382 622.234 217.289C622.89 218.197 623.736 218.949 624.714 219.494C625.692 220.039 626.778 220.363 627.895 220.443L633.428 237.042L644.339 236.141L636.195 212.809C636.205 210.925 635.523 209.102 634.279 207.686C633.035 206.271 631.314 205.361 629.443 205.129C627.573 204.896 625.682 205.358 624.129 206.427C622.576 207.495 621.469 209.096 621.018 210.926Z" fill="#FFB8B8"/>
<path d="M629.374 319.626C630.653 320.8 632.219 321.616 633.913 321.992C635.608 322.368 637.373 322.29 639.028 321.766C640.683 321.242 642.171 320.291 643.341 319.009C644.511 317.727 645.322 316.159 645.692 314.463L654.333 274.884C655.811 268.115 655.463 261.076 653.325 254.487L643.212 223.315C643.067 222.868 642.827 222.457 642.508 222.111C642.19 221.765 641.8 221.492 641.366 221.31C640.932 221.129 640.464 221.043 639.994 221.059C639.524 221.075 639.062 221.192 638.642 221.403L632.041 224.706C631.358 225.048 630.816 225.619 630.51 226.319C630.204 227.019 630.153 227.805 630.367 228.539L631.032 230.826C636.566 249.852 636.856 270.019 631.873 289.195L626.498 309.878C626.047 311.611 626.077 313.434 626.584 315.151C627.09 316.868 628.055 318.415 629.374 319.626Z" fill="#111D4A"/>
<path d="M594.798 514.332L585.461 514.331L581.02 478.325L594.801 478.326L594.798 514.332Z" fill="#FFB8B8"/>
<path d="M578.791 511.664H596.798V522.999H567.453C567.453 521.51 567.746 520.036 568.316 518.661C568.885 517.286 569.721 516.036 570.773 514.984C571.826 513.931 573.076 513.096 574.452 512.526C575.827 511.957 577.302 511.664 578.791 511.664Z" fill="#47465B"/>
<path d="M645.127 514.332L635.79 514.331L631.35 478.325L645.131 478.326L645.127 514.332Z" fill="#FFB8B8"/>
<path d="M629.12 511.664H647.128V522.999H617.782C617.782 521.51 618.075 520.036 618.645 518.661C619.215 517.286 620.05 516.036 621.103 514.984C622.156 513.931 623.406 513.096 624.781 512.526C626.157 511.957 627.631 511.664 629.12 511.664Z" fill="#47465B"/>
<path d="M617.782 258.371C628.861 258.371 637.842 249.392 637.842 238.316C637.842 227.24 628.861 218.261 617.782 218.261C606.703 218.261 597.721 227.24 597.721 238.316C597.721 249.392 606.703 258.371 617.782 258.371Z" fill="#FFB8B8"/>
<path d="M549.188 369.106C549.328 367.995 549.71 366.929 550.307 365.982C550.904 365.035 551.702 364.23 552.643 363.625C553.585 363.019 554.648 362.627 555.757 362.477C556.867 362.326 557.996 362.421 559.065 362.754L570.276 349.318L580.104 354.138L564.006 372.889C563.327 374.647 562.027 376.096 560.352 376.96C558.677 377.824 556.743 378.043 554.916 377.577C553.09 377.111 551.498 375.991 550.442 374.429C549.386 372.868 548.94 370.974 549.188 369.106Z" fill="#FFB8B8"/>
<path d="M622.666 258.37C625.685 258.435 628.684 257.861 631.465 256.685C634.247 255.509 636.748 253.758 638.804 251.547C640.86 249.335 642.425 246.714 643.396 243.856C644.366 240.997 644.721 237.965 644.436 234.959C644.151 231.954 643.233 229.043 641.743 226.417C640.252 223.791 638.223 221.511 635.788 219.725C633.353 217.939 630.568 216.689 627.615 216.056C624.662 215.423 621.609 215.422 618.656 216.053C614.244 213.375 609.115 211.573 603.975 212.031C598.834 212.49 593.75 215.541 591.828 220.329C589.906 225.117 591.971 231.429 596.751 233.375C599.815 234.623 603.275 234.018 606.546 233.514C609.816 233.011 613.383 232.683 616.229 234.37C619.075 236.057 620.355 240.58 617.806 242.689C616.455 243.851 615.49 245.398 615.04 247.122C614.59 248.846 614.676 250.667 615.287 252.341C616.568 255.653 620.064 258.314 622.666 258.37Z" fill="#47465B"/>
<path d="M647.555 368.313L651.113 503.317C651.125 503.767 651.044 504.215 650.875 504.632C650.705 505.049 650.451 505.427 650.129 505.741C649.807 506.055 649.423 506.3 649.002 506.459C648.58 506.618 648.131 506.688 647.681 506.665L635.959 506.067C635.211 506.029 634.499 505.735 633.942 505.235C633.385 504.734 633.016 504.058 632.899 503.318L618.956 415.632C618.896 415.257 618.708 414.914 618.422 414.663C618.137 414.412 617.773 414.268 617.393 414.256C617.014 414.244 616.641 414.365 616.341 414.598C616.041 414.831 615.831 415.161 615.748 415.532L596.875 499.958C596.774 500.41 596.579 500.834 596.301 501.204C596.024 501.574 595.671 501.881 595.266 502.105C594.861 502.329 594.414 502.464 593.953 502.501C593.492 502.539 593.028 502.478 592.592 502.323L580.959 501.613C580.286 501.374 579.709 500.921 579.319 500.323C578.928 499.725 578.744 499.016 578.794 498.304L588.95 367.035L647.555 368.313Z" fill="#47465B"/>
<path d="M653.266 304.19C655.228 283.732 640.182 265.227 619.675 263.771C610.84 263.144 597.123 262.92 592.601 274.498C578.98 309.375 602.825 308.527 594.609 338.745C586.394 368.962 579.138 370.694 590.41 372.876C601.683 375.058 652.375 387.938 650.294 366.67C649.014 353.597 651.308 324.598 653.266 304.19Z" fill="#111D4A"/>
<path d="M596.647 270.95C598.266 270.324 600.022 270.135 601.737 270.404C603.452 270.672 605.066 271.389 606.416 272.48C607.766 273.571 608.804 275 609.425 276.62C610.047 278.241 610.229 279.997 609.955 281.711L603.552 321.713C602.458 328.554 599.564 334.98 595.168 340.335L574.374 365.668C574.076 366.031 573.702 366.326 573.279 366.532C572.856 366.738 572.394 366.85 571.924 366.861C571.453 366.872 570.986 366.781 570.554 366.594C570.122 366.408 569.736 366.131 569.421 365.781L564.481 360.297C563.97 359.73 563.674 359 563.645 358.237C563.615 357.473 563.855 356.724 564.321 356.118L565.776 354.231C577.873 338.536 585.505 319.867 587.865 300.194L590.41 278.977C590.624 277.199 591.317 275.513 592.415 274.099C593.514 272.685 594.977 271.597 596.647 270.95Z" fill="#111D4A"/>
</g>
<defs>
<clipPath id="clip0_2_128">
<rect width="689" height="523" fill="white"/>
</clipPath>
</defs>
</svg>
