<svg width="570" height="467" viewBox="0 0 570 467" fill="none" xmlns="http://www.w3.org/2000/svg">
<g clip-path="url(#clip0_2_162)">
<path d="M388.657 350.879H4.40938C3.32385 350.878 2.28314 350.447 1.51555 349.68C0.747964 348.913 0.316183 347.873 0.314941 346.788V4.40567C0.316183 3.32106 0.747964 2.28122 1.51555 1.51428C2.28314 0.747348 3.32385 0.315938 4.40938 0.314697H388.657C389.742 0.315952 390.783 0.747365 391.551 1.5143C392.318 2.28123 392.75 3.32106 392.751 4.40567V346.788C392.75 347.873 392.318 348.913 391.551 349.68C390.783 350.447 389.742 350.878 388.657 350.879Z" fill="white"/>
<path d="M131.458 15.3763V103.857H131.278C119.534 103.857 108.272 99.1964 99.9684 90.8997C91.6646 82.603 86.9996 71.3502 86.9996 59.6169C86.9996 47.8835 91.6646 36.6308 99.9684 28.334C108.272 20.0373 119.534 15.3763 131.278 15.3763H131.458Z" fill="#92140C"/>
<path d="M121.438 35.3181V83.9157H121.339C114.889 83.9157 108.703 81.3557 104.143 76.7987C99.5819 72.2418 97.0197 66.0613 97.0197 59.6169C97.0197 53.1724 99.5819 46.9919 104.143 42.435C108.703 37.8781 114.889 35.3181 121.339 35.3181H121.438Z" fill="white"/>
<path d="M196.875 176.856H63.0834V58.9874H86.9999V60.2461H64.3432V175.597H196.875V176.856Z" fill="#3F3D56"/>
<path d="M214.914 206.539C221.556 206.539 226.94 201.16 226.94 194.523C226.94 187.887 221.556 182.507 214.914 182.507C208.272 182.507 202.888 187.887 202.888 194.523C202.888 201.16 208.272 206.539 214.914 206.539Z" fill="#92140C"/>
<path d="M326.976 322.876C333.618 322.876 339.002 317.496 339.002 310.86C339.002 304.224 333.618 298.844 326.976 298.844C320.334 298.844 314.95 304.224 314.95 310.86C314.95 317.496 320.334 322.876 326.976 322.876Z" fill="#3F3D56"/>
<path d="M63.4939 187.423C70.1358 187.423 75.5201 182.043 75.5201 175.407C75.5201 168.771 70.1358 163.391 63.4939 163.391C56.8521 163.391 51.4678 168.771 51.4678 175.407C51.4678 182.043 56.8521 187.423 63.4939 187.423Z" fill="#111D4A"/>
<path d="M196.875 176.5H226.94V146.46H166.809V206.539H196.875V176.5Z" fill="#3F3D56"/>
<path d="M393.12 25.2075H261.379V41.5929H393.12V25.2075Z" fill="#E4E4E4"/>
<path d="M393.12 60.7092H261.379V77.0947H393.12V60.7092Z" fill="#E4E4E4"/>
<path d="M353.762 116.966C353.762 117.212 353.756 117.452 353.751 117.692H300.202C300.196 117.452 300.191 117.212 300.191 116.966C300.191 109.868 303.013 103.061 308.036 98.0416C313.059 93.0226 319.872 90.203 326.976 90.203C334.08 90.203 340.893 93.0226 345.916 98.0416C350.94 103.061 353.762 109.868 353.762 116.966Z" fill="#E4E4E4"/>
<path d="M353.762 307.403C353.762 307.648 353.756 307.889 353.751 308.129H300.202C300.196 307.889 300.191 307.648 300.191 307.403C300.191 300.305 303.013 293.497 308.036 288.478C313.059 283.459 319.872 280.64 326.976 280.64C334.08 280.64 340.893 283.459 345.916 288.478C350.94 293.497 353.762 300.305 353.762 307.403Z" fill="#E4E4E4"/>
<path d="M327.606 143.729H326.346V280.57H327.606V143.729Z" fill="#3F3D56"/>
<path d="M172.276 294.475C172.276 305.307 167.981 315.699 160.331 323.376C152.682 331.053 142.3 335.39 131.458 335.438V253.511C142.3 253.559 152.682 257.896 160.331 265.573C167.981 273.25 172.276 283.642 172.276 294.475Z" fill="#111D4A"/>
<path d="M389.84 352.453H3.90974C2.87317 352.452 1.87939 352.04 1.14644 351.307C0.413481 350.575 0.0011853 349.582 0 348.546V3.90656C0.0011853 2.87087 0.413481 1.87792 1.14644 1.14556C1.87939 0.413201 2.87317 0.001221 3.90974 0H389.84C390.877 0.001221 391.871 0.413201 392.604 1.14556C393.336 1.87792 393.749 2.87086 393.75 3.90656V348.546C393.749 349.582 393.336 350.575 392.604 351.307C391.871 352.04 390.877 352.452 389.84 352.453ZM3.90974 1.25876C3.20716 1.25956 2.53359 1.53879 2.03681 2.03518C1.54003 2.53157 1.26059 3.20458 1.25983 3.90656V348.546C1.26059 349.248 1.54003 349.921 2.03681 350.418C2.53359 350.914 3.20716 351.193 3.90974 351.194H389.84C390.543 351.193 391.216 350.914 391.713 350.418C392.21 349.921 392.489 349.248 392.49 348.546V3.90656C392.489 3.20458 392.21 2.53158 391.713 2.03519C391.216 1.5388 390.543 1.25957 389.84 1.25876H3.90974Z" fill="#3F3D56"/>
<path d="M130.828 104.489V14.7443L131.461 14.7468C143.34 14.7943 154.716 19.5426 163.1 27.9522C171.483 36.3618 176.19 47.7476 176.19 59.6169C176.19 71.4862 171.483 82.8719 163.1 91.2816C154.716 99.6912 143.34 104.439 131.461 104.487L130.828 104.489ZM132.088 16.0126V103.221C143.522 103.009 154.416 98.3215 162.427 90.1672C170.438 82.013 174.926 71.0431 174.926 59.6169C174.926 48.1906 170.438 37.2208 162.427 29.0665C154.416 20.9122 143.522 16.2249 132.088 16.0126Z" fill="#3F3D56"/>
<path d="M132.088 336.067H131.278C120.237 336.067 109.649 331.685 101.842 323.885C94.0355 316.085 89.6497 305.506 89.6497 294.475C89.6497 283.443 94.0355 272.864 101.842 265.064C109.649 257.264 120.237 252.882 131.278 252.882H132.088L132.088 336.067ZM130.828 254.143C120.2 254.261 110.048 258.562 102.575 266.113C95.1009 273.664 90.9093 283.855 90.9093 294.475C90.9093 305.094 95.1009 315.285 102.575 322.836C110.048 330.387 120.2 334.688 130.828 334.806V254.143Z" fill="#3F3D56"/>
<path d="M326.976 144.358C319.823 144.396 312.941 141.624 307.814 136.639C302.688 131.654 299.727 124.855 299.572 117.709L299.555 117.063H354.398L354.38 117.709C354.225 124.855 351.265 131.654 346.138 136.639C341.012 141.624 334.13 144.396 326.976 144.358ZM300.856 118.322C301.204 125.009 304.107 131.308 308.968 135.918C313.828 140.529 320.274 143.099 326.976 143.099C333.678 143.099 340.124 140.529 344.985 135.918C349.845 131.308 352.748 125.009 353.096 118.322H300.856Z" fill="#3F3D56"/>
<path d="M393.12 234.129H0.629883V235.388H393.12V234.129Z" fill="#3F3D56"/>
<path d="M393.12 117.063H0.629883V118.322H393.12V117.063Z" fill="#3F3D56"/>
<path d="M262.92 0.629395H261.66V351.823H262.92V0.629395Z" fill="#3F3D56"/>
<path d="M132.088 0.629395H130.828V351.823H132.088V0.629395Z" fill="#3F3D56"/>
<path d="M91.9194 305.398C98.5612 305.398 103.946 300.018 103.946 293.382C103.946 286.746 98.5612 281.366 91.9194 281.366C85.2775 281.366 79.8932 286.746 79.8932 293.382C79.8932 300.018 85.2775 305.398 91.9194 305.398Z" fill="#111D4A"/>
<path d="M569.37 467H329.373C329.206 467 329.046 466.934 328.928 466.816C328.809 466.698 328.743 466.538 328.743 466.371C328.743 466.204 328.809 466.044 328.928 465.926C329.046 465.808 329.206 465.741 329.373 465.741H569.37C569.537 465.741 569.697 465.808 569.815 465.926C569.934 466.044 570 466.204 570 466.371C570 466.538 569.934 466.698 569.815 466.816C569.697 466.934 569.537 467 569.37 467Z" fill="#CACACA"/>
<path d="M361.835 465.731C365.381 454.316 361.937 441.334 353.85 432.659C351.569 430.207 348.912 428.135 345.978 426.519C345.78 426.412 345.55 426.378 345.329 426.424C345.108 426.471 344.911 426.594 344.773 426.773C344.635 426.951 344.565 427.173 344.576 427.399C344.588 427.624 344.679 427.838 344.833 428.002L346.453 429.753V428.418C343.318 431.34 337.605 429.111 337.035 424.957C336.92 423.875 337.055 422.782 337.428 421.76C337.802 420.738 338.405 419.816 339.191 419.063C340.036 418.27 341.071 417.707 342.196 417.428C343.321 417.149 344.499 417.163 345.617 417.47C346.796 417.756 347.899 418.294 348.851 419.047C349.802 419.799 350.579 420.749 351.128 421.83C352.138 424.053 352.233 426.583 351.391 428.875C349.662 433.922 344.148 436.295 339.116 435.106C333.981 433.892 330.301 429.055 330.133 423.831C330.107 421.301 330.854 418.823 332.274 416.728C333.695 414.634 335.721 413.022 338.082 412.108C343.473 410.118 349.326 412.108 353.879 415.184C358.523 418.44 362.32 422.76 364.952 427.781C367.629 432.653 369.153 438.073 369.406 443.625C369.553 448.191 368.583 453.379 365.212 456.714C364.404 457.506 363.472 458.16 362.452 458.65L363.406 460.281C369.372 456.832 374.211 451.73 377.339 445.593C380.466 439.456 381.749 432.546 381.032 425.696C380.574 421.572 379.408 417.558 377.586 413.83C377.052 412.738 375.422 413.694 375.954 414.783C379.03 421.107 380.063 428.229 378.909 435.165C378.06 440.047 376.146 444.682 373.302 448.741C370.457 452.8 366.753 456.183 362.452 458.65C361.387 459.262 362.324 460.811 363.406 460.281C368.495 457.787 370.714 452.143 371.204 446.797C371.762 440.694 370.173 434.355 367.601 428.85C364.918 423.03 360.818 417.974 355.675 414.144C350.608 410.452 343.745 408.012 337.58 410.288C332.066 412.323 328.057 417.903 328.243 423.831C328.43 429.78 332.542 435.377 338.385 436.87C344.214 438.36 350.589 435.792 352.939 430.098C354.061 427.461 354.142 424.497 353.163 421.803C352.645 420.497 351.862 419.312 350.864 418.323C349.866 417.333 348.674 416.561 347.362 416.053C346.073 415.512 344.675 415.278 343.28 415.369C341.884 415.46 340.529 415.873 339.321 416.576C338.214 417.282 337.273 418.218 336.56 419.32C335.848 420.422 335.382 421.664 335.192 422.962C334.985 424.218 335.11 425.506 335.553 426.699C335.997 427.892 336.745 428.948 337.723 429.764C338.681 430.533 339.797 431.081 340.992 431.368C342.187 431.656 343.43 431.676 344.634 431.428C345.817 431.164 346.908 430.585 347.789 429.753C347.962 429.574 348.059 429.334 348.059 429.085C348.059 428.836 347.962 428.597 347.789 428.418L346.17 426.667L345.025 428.15C354.93 433.583 361.131 444.634 361.339 455.84C361.403 459.021 360.955 462.191 360.013 465.23C359.652 466.393 361.475 466.89 361.835 465.731Z" fill="#F0F0F0"/>
<path d="M488.751 263.649C486.061 261.398 485.705 257.392 487.955 254.702C488.195 254.415 488.46 254.15 488.747 253.91L492.6 220.615L504.834 223.448L498.035 255.008C500.117 257.856 499.497 261.851 496.65 263.933C494.268 265.674 491.002 265.557 488.751 263.649Z" fill="#FFB6B6"/>
<path d="M490.015 226.044L504.179 234.88C504.179 234.88 505.042 240.059 506.015 227.044C506.117 225.686 505.169 223.319 505.273 221.924C505.391 220.351 509.897 219.636 510.015 218.044C510.1 216.911 508.797 215.903 508.881 214.773C509.009 213.062 509.135 211.36 509.26 209.685C509.364 208.284 510.915 207.396 511.015 206.044C511.116 204.681 509.765 202.854 509.861 201.562C510.575 191.873 508.106 167.498 508.106 167.002C508.297 165.758 508.816 164.587 509.611 163.611L508.855 161.35L509.355 157.107C510.012 151.532 508.84 145.895 506.015 141.044L502.418 138.689L485.821 166.606C492.805 190.764 497.364 200.253 490.015 226.044Z" fill="#111D4A"/>
<path d="M501.068 434.199H492.5L488.422 401.15H501.068V434.199Z" fill="#FFB6B6"/>
<path d="M503.864 428.33L490.175 427.513V433.378L477.161 442.366C475.496 443.516 475.078 445.797 476.228 447.462C476.912 448.453 478.039 449.044 479.243 449.044H495.539L498.348 443.243L499.445 449.044H505.59L503.864 428.33Z" fill="#47465B"/>
<path d="M452.939 434.199H444.371L440.294 401.15H452.939V434.199Z" fill="#FFB6B6"/>
<path d="M455.735 428.33L442.047 427.513V433.378L429.033 442.366C427.368 443.516 426.95 445.797 428.099 447.462C428.783 448.453 429.91 449.044 431.114 449.044H447.411L450.22 443.243L451.317 449.044H457.461L455.735 428.33Z" fill="#47465B"/>
<path d="M504.704 405.699H504.671L503.023 326.995C505.189 322.817 505.12 317.832 502.839 313.716L502.603 313.289L503.215 310.454C504 306.811 503.64 303.014 502.182 299.584L500.645 249.459C506.137 213.866 479.964 190.654 479.964 190.654H440.756L432.339 219.575C426.774 273.789 427.784 351.589 436.614 402.773L436.374 402.894C435.425 403.423 435.06 404.604 435.543 405.577C435.951 406.759 436.984 407.474 437.851 407.175L458.557 406.455C459.506 405.926 459.872 404.745 459.388 403.773C458.98 402.591 457.947 401.875 457.08 402.174L455.672 402.886L457.125 399.929C458.906 396.302 458.562 391.991 456.227 388.693L456.481 382.183C458.682 379.605 459.414 376.081 458.421 372.84L457.024 368.281L458.674 326.064L458.341 316.593L459.028 305.848L462.201 257.518L474.215 316.951L486.486 406.297C485.886 406.839 485.622 407.662 485.796 408.452C486.057 409.512 487.017 410.25 488.108 410.228H504.764C506.017 410.227 507.032 409.21 507.031 407.957C507.031 407.754 507.003 407.551 506.949 407.355C506.66 406.36 505.741 405.682 504.704 405.699Z" fill="#47465B"/>
<path d="M409.425 250.712C407.211 247.991 407.622 243.99 410.343 241.776C410.634 241.54 410.944 241.33 411.271 241.149L421.38 209.193L432.854 214.299L420.182 243.992C421.684 247.183 420.316 250.988 417.125 252.491C414.456 253.748 411.272 253.013 409.425 250.712Z" fill="#FFB6B6"/>
<path d="M451.023 149.12C451.023 149.12 439.493 189.922 440.016 194.044C441.092 202.544 494.075 228.671 498.016 217.044L497.522 213.222C499.512 209.241 487.367 193.441 486.778 191.374C486.029 188.732 489.42 180.055 489.42 180.055C489.42 180.055 487.076 172.134 487.451 167.23C487.832 162.326 488.963 163.082 493.11 160.058C497.258 157.041 504.048 143.086 504.048 143.086C504.048 143.086 501.031 129.506 501.031 126.863C501.031 124.22 488.637 119.719 487.132 118.214C486.476 117.34 485.925 116.392 485.488 115.391C485.183 114.781 485.377 113.366 485.051 112.665C484.843 112.207 484.114 112.492 483.899 112.02C483.691 111.562 483.872 111.035 483.664 110.584C483.393 109.988 482.741 109.468 482.484 108.906C481.305 106.326 480.3 104.224 479.988 104.224C479.238 104.224 455.088 107.623 455.088 107.623C453.773 109.656 452.258 111.552 450.565 113.282C447.923 115.918 435.556 122.334 435.556 122.334L451.023 149.12Z" fill="#111D4A"/>
<path d="M418.412 217.764C420.298 219.65 429.634 228.312 430.015 226.044C430.39 223.783 430.594 223.513 432.106 222.764C433.618 222.008 433.618 221.633 433.992 218.99C434.367 216.348 437.766 213.705 437.384 212.575C437.01 211.444 437.359 212.882 437.359 211.745C437.359 210.614 438.49 206.467 440.002 205.711C441.507 204.955 443.775 204.206 442.637 202.319C441.507 200.432 453.284 143.835 453.284 143.835L442.721 123.09L435.556 122.334C435.556 122.334 433.379 123.579 432.697 134.81C432.662 135.379 432.042 136.423 432.015 137.044C431.994 137.56 432.564 137.646 432.548 138.199C432.545 138.318 432.542 138.437 432.539 138.557C432.524 139.108 431.038 139.513 431.015 140.044C430.976 140.994 430.392 147.049 430.329 147.939C430.258 148.942 430.174 149.908 430.077 150.838C429.035 160.959 428.662 161.814 428.015 165.044C427.015 170.044 422.87 199.246 422.87 199.246C422.87 199.246 419.853 199.995 419.853 202.638C419.853 205.281 416.525 210.592 418.03 213.609C419.543 216.633 416.525 215.877 418.412 217.764Z" fill="#111D4A"/>
<path d="M469.76 103.45C459.878 103.45 451.867 95.4383 451.867 85.556C451.867 75.6736 459.878 67.6624 469.76 67.6624C479.642 67.6624 487.654 75.6736 487.654 85.556C487.654 95.4383 479.642 103.45 469.76 103.45Z" fill="#FFB8B8"/>
<path d="M508.32 123.161C512.106 121.819 515.893 120.475 519.679 119.128C519.027 118.033 518.195 117.055 517.22 116.234C513.615 113.223 508.639 112.679 504.062 111.664C499.477 110.648 494.501 108.566 492.825 104.185C491.084 99.6293 493.609 94.7111 495.074 90.0686C497.238 83.5569 496.975 76.4824 494.334 70.1493C491.599 63.8093 486.066 59.1054 479.369 57.4259C472.739 55.9533 465.246 58.3543 461.169 63.7803C455.733 62.1497 449.936 64.8336 447.662 70.0332C446.613 72.4219 446.775 75.1688 448.097 77.4177C449.512 79.5577 452.537 80.653 454.815 79.4634L453.494 76.1121C457.578 77.4975 460.233 84.882 459.682 89.1619C459.138 93.4345 456.643 97.1775 454.111 100.667C451.579 104.156 448.881 107.681 447.793 111.852C446.226 117.851 448.344 124.409 452.261 129.218C456.178 134.027 461.699 137.292 467.415 139.693C471.693 141.492 476.14 142.862 480.689 143.784C479.877 142.203 479.072 140.621 478.259 139.04L487.9 144.872C489.764 145.054 491.643 145.162 493.522 145.199C498.991 145.293 504.569 144.72 509.575 142.536C514.587 140.346 518.99 136.378 520.804 131.22C521.385 129.552 521.66 127.793 521.616 126.026C517.184 125.069 512.752 124.114 508.32 123.161Z" fill="#47465B"/>
<path d="M502.111 15.2857C502.111 11.346 505.3 8.14286 509.222 8.14286H512.778C516.7 8.14286 519.889 11.346 519.889 15.2857V15.6875C519.889 18.1205 518.656 20.3862 516.622 21.692L511.933 24.7165C509.133 26.5246 507.444 29.6384 507.444 32.9754V33.1429C507.444 35.1183 509.033 36.7143 511 36.7143C512.967 36.7143 514.556 35.1183 514.556 33.1429V32.9866C514.556 32.0714 515.022 31.2232 515.778 30.7321L520.467 27.7076C524.533 25.0737 527 20.5536 527 15.6875V15.2857C527 7.39509 520.633 1 512.778 1H509.222C501.367 1 495 7.39509 495 15.2857C495 17.2612 496.589 18.8571 498.556 18.8571C500.522 18.8571 502.111 17.2612 502.111 15.2857ZM511 51C512.179 51 513.309 50.5297 514.143 49.6924C514.976 48.8552 515.444 47.7197 515.444 46.5357C515.444 45.3517 514.976 44.2162 514.143 43.379C513.309 42.5418 512.179 42.0714 511 42.0714C509.821 42.0714 508.691 42.5418 507.857 43.379C507.024 44.2162 506.556 45.3517 506.556 46.5357C506.556 47.7197 507.024 48.8552 507.857 49.6924C508.691 50.5297 509.821 51 511 51Z" fill="#92140C"/>
</g>
<defs>
<clipPath id="clip0_2_162">
<rect width="570" height="467" fill="white"/>
</clipPath>
</defs>
</svg>
