<svg width="539" height="580" viewBox="0 0 539 580" fill="none" xmlns="http://www.w3.org/2000/svg">
<g clip-path="url(#clip0_2_203)">
<path d="M506.768 441.458H101.832C94.3195 441.449 88.2317 435.361 88.223 427.849V98.126C88.2317 90.6136 94.3196 84.5257 101.832 84.5171H506.768C514.28 84.5258 520.368 90.6136 520.377 98.126V427.849C520.368 435.361 514.28 441.449 506.768 441.458Z" fill="#E6E6E6"/>
<path d="M467.423 432.279H111.014C103.501 432.27 97.4134 426.182 97.4047 418.669V107.313C97.4134 99.8004 103.501 93.7125 111.014 93.7039H497.588C505.101 93.7126 511.188 99.8004 511.197 107.313V388.504C511.17 412.669 491.588 432.251 467.423 432.279Z" fill="white"/>
<path d="M358.713 164H206.287C204.472 164 203 162.433 203 160.5C203 158.567 204.472 157 206.287 157H358.713C360.528 157 362 158.567 362 160.5C362 162.433 360.528 164 358.713 164Z" fill="#92140C"/>
<path d="M359.787 202H205.213C203.991 202 203 200.433 203 198.5C203 196.567 203.991 195 205.213 195H359.787C361.009 195 362 196.567 362 198.5C362 200.433 361.009 202 359.787 202Z" fill="#E6E6E6"/>
<path d="M451.871 239.001H206.729C204.791 239.001 203.22 237.43 203.22 235.491C203.22 233.553 204.791 231.981 206.729 231.981H451.871C453.809 231.981 455.381 233.553 455.381 235.491C455.381 237.43 453.809 239.001 451.871 239.001Z" fill="#E6E6E6"/>
<path d="M451.871 276.448H206.729C204.791 276.448 203.22 274.877 203.22 272.938C203.22 271 204.791 269.428 206.729 269.428H451.871C453.809 269.428 455.381 271 455.381 272.938C455.381 274.877 453.809 276.448 451.871 276.448Z" fill="#E6E6E6"/>
<path d="M451.871 313.895H206.729C204.791 313.895 203.22 312.324 203.22 310.385C203.22 308.447 204.791 306.875 206.729 306.875H451.871C453.809 306.875 455.381 308.447 455.381 310.385C455.381 312.324 453.809 313.895 451.871 313.895Z" fill="#E6E6E6"/>
<path d="M440.847 373.569C431.032 373.569 423.075 365.612 423.075 355.797C423.075 345.982 431.032 338.025 440.847 338.025C450.662 338.025 458.619 345.982 458.619 355.797C458.619 365.612 450.662 373.569 440.847 373.569Z" fill="#92140C"/>
<path d="M450.845 354.953L445.807 347.599C445.342 346.917 444.413 346.741 443.731 347.205C443.049 347.67 442.873 348.6 443.337 349.282L443.342 349.288L446.6 354.044H433.835C432.867 354.041 432.079 354.824 432.077 355.792C432.074 356.76 432.856 357.547 433.824 357.55H446.761L443.342 362.54C442.878 363.223 443.056 364.152 443.739 364.616C444.417 365.076 445.341 364.904 445.807 364.229L450.845 356.875C451.179 356.278 451.179 355.55 450.845 354.953Z" fill="white"/>
<path d="M129.883 392.036C132.574 389.785 132.93 385.779 130.679 383.088C130.439 382.802 130.174 382.536 129.888 382.296L126.034 349.002L113.8 351.834L120.599 383.395C118.518 386.242 119.138 390.237 121.985 392.319C124.367 394.061 127.632 393.944 129.883 392.036Z" fill="#FFB6B6"/>
<path d="M128.619 354.431L114.455 363.267C114.455 363.267 113.593 368.445 112.619 355.431C112.517 354.072 113.465 351.705 113.361 350.311C113.244 348.738 108.738 348.022 108.619 346.431C108.535 345.298 109.837 344.29 109.753 343.16C109.626 341.448 109.499 339.746 109.375 338.072C109.271 336.671 107.719 335.783 107.619 334.431C107.518 333.067 108.869 331.24 108.774 329.948C108.06 320.26 110.529 295.885 110.529 295.389C110.338 294.144 109.818 292.974 109.024 291.997L109.78 289.736L109.28 285.494C108.623 279.919 109.795 274.282 112.619 269.431L116.216 267.075L132.814 294.992C125.83 319.15 121.27 328.639 128.619 354.431Z" fill="#111D4A"/>
<path d="M117.567 562.585H126.135L130.213 529.536H117.567V562.585Z" fill="#FFB6B6"/>
<path d="M114.771 556.717L128.46 555.9V561.765L141.474 570.753C143.139 571.902 143.557 574.184 142.407 575.849C141.723 576.839 140.596 577.431 139.392 577.431H123.095L120.286 571.629L119.19 577.431H113.045L114.771 556.717Z" fill="#47465B"/>
<path d="M165.696 562.585H174.264L178.341 529.536H165.696V562.585Z" fill="#FFB6B6"/>
<path d="M162.899 556.717L176.588 555.9V561.765L189.602 570.753C191.267 571.902 191.685 574.184 190.535 575.849C189.851 576.839 188.724 577.431 187.52 577.431H171.224L168.415 571.629L167.318 577.431H161.173L162.899 556.717Z" fill="#47465B"/>
<path d="M113.93 534.086H113.964L115.612 455.381C113.446 451.203 113.515 446.219 115.796 442.103L116.032 441.676L115.42 438.84C114.635 435.197 114.995 431.401 116.452 427.971L117.99 377.845C112.498 342.253 138.671 319.041 138.671 319.041H177.878L186.296 347.961C191.86 402.176 190.851 479.975 182.02 531.159L182.261 531.281C183.209 531.81 183.575 532.991 183.092 533.963C182.684 535.145 181.65 535.861 180.783 535.562L160.077 534.841C159.129 534.313 158.763 533.132 159.247 532.159C159.655 530.977 160.688 530.262 161.555 530.561L162.963 531.273L161.51 528.316C159.728 524.688 160.073 520.377 162.408 517.079L162.154 510.569C159.952 507.992 159.221 504.468 160.214 501.227L161.61 496.668L159.96 454.451L160.294 444.98L159.607 434.235L156.433 385.904L144.42 445.337L132.148 534.684C132.749 535.226 133.012 536.048 132.839 536.838C132.578 537.898 131.618 538.636 130.526 538.615H113.871C112.617 538.613 111.603 537.596 111.604 536.343C111.604 536.14 111.631 535.938 111.685 535.742C111.974 534.747 112.894 534.068 113.93 534.086Z" fill="#47465B"/>
<path d="M209.21 379.098C211.424 376.377 211.012 372.376 208.291 370.163C208.001 369.927 207.691 369.717 207.364 369.535L197.254 337.579L185.781 342.685L198.453 372.379C196.95 375.57 198.319 379.374 201.509 380.877C204.179 382.135 207.362 381.399 209.21 379.098Z" fill="#FFB6B6"/>
<path d="M167.612 277.507C167.612 277.507 179.141 318.309 178.619 322.431C177.542 330.93 124.559 357.057 120.619 345.431L121.113 341.609C119.122 337.628 131.267 321.827 131.857 319.761C132.606 317.118 129.214 308.441 129.214 308.441C129.214 308.441 131.559 300.52 131.184 295.617C130.803 290.713 129.672 291.469 125.524 288.445C121.377 285.428 114.586 271.473 114.586 271.473C114.586 271.473 117.604 257.892 117.604 255.249C117.604 252.607 129.998 248.105 131.503 246.6C132.158 245.726 132.71 244.779 133.147 243.777C133.452 243.167 133.258 241.752 133.584 241.052C133.792 240.594 134.52 240.878 134.735 240.407C134.943 239.949 134.763 239.422 134.971 238.971C135.242 238.374 135.894 237.854 136.15 237.292C137.329 234.712 138.335 232.611 138.647 232.611C139.396 232.611 163.547 236.009 163.547 236.009C164.862 238.042 166.377 239.938 168.069 241.669C170.712 244.305 183.079 250.72 183.079 250.72L167.612 277.507Z" fill="#111D4A"/>
<path d="M200.223 346.15C198.336 348.037 189.001 356.699 188.619 354.431C188.245 352.169 188.041 351.899 186.529 351.15C185.017 350.394 185.017 350.02 184.642 347.377C184.268 344.734 180.869 342.092 181.251 340.961C181.625 339.831 181.275 341.269 181.275 340.131C181.275 339.001 180.145 334.853 178.633 334.097C177.128 333.341 174.86 332.592 175.997 330.705C177.128 328.819 165.35 272.222 165.35 272.222L175.914 251.476L183.079 250.72C183.079 250.72 185.256 251.966 185.938 263.197C185.973 263.765 186.593 264.809 186.619 265.431C186.641 265.947 186.071 266.032 186.086 266.586C186.09 266.704 186.093 266.823 186.096 266.943C186.11 267.494 187.597 267.899 187.619 268.431C187.659 269.38 188.243 275.435 188.306 276.325C188.377 277.328 188.461 278.295 188.557 279.224C189.6 289.345 189.973 290.2 190.619 293.431C191.619 298.431 195.765 327.633 195.765 327.633C195.765 327.633 198.782 328.382 198.782 331.024C198.782 333.667 202.109 338.978 200.604 341.995C199.092 345.02 202.109 344.264 200.223 346.15Z" fill="#111D4A"/>
<path d="M148.875 231.836C158.757 231.836 166.768 223.825 166.768 213.942C166.768 204.06 158.757 196.049 148.875 196.049C138.992 196.049 130.981 204.06 130.981 213.942C130.981 223.825 138.992 231.836 148.875 231.836Z" fill="#FFB8B8"/>
<path d="M110.315 251.548C106.528 250.206 102.742 248.861 98.9554 247.514C99.608 246.419 100.439 245.441 101.414 244.62C105.02 241.61 109.996 241.066 114.573 240.05C119.158 239.034 124.134 236.953 125.809 232.571C127.55 228.016 125.026 223.098 123.561 218.455C121.397 211.943 121.659 204.869 124.301 198.536C127.036 192.196 132.568 187.492 139.266 185.812C145.896 184.34 153.389 186.741 157.466 192.167C162.901 190.536 168.699 193.22 170.972 198.42C172.021 200.808 171.859 203.555 170.537 205.804C169.123 207.944 166.098 209.039 163.82 207.85L165.14 204.498C161.056 205.884 158.401 213.268 158.953 217.548C159.497 221.821 161.992 225.564 164.524 229.053C167.055 232.542 169.754 236.068 170.842 240.239C172.409 246.238 170.291 252.795 166.374 257.605C162.456 262.414 156.936 265.678 151.22 268.079C146.941 269.878 142.495 271.249 137.945 272.171C138.758 270.589 139.563 269.008 140.375 267.427L130.735 273.259C128.871 273.44 126.992 273.549 125.113 273.585C119.644 273.679 114.065 273.106 109.06 270.923C104.048 268.732 99.6445 264.764 97.831 259.607C97.2496 257.939 96.9744 256.179 97.0186 254.413C101.451 253.455 105.883 252.5 110.315 251.548Z" fill="#47465B"/>
<path d="M283.233 578.794H250.046L249.904 578.535C249.479 577.765 249.07 576.95 248.687 576.112C245.268 568.794 243.823 560.424 242.549 553.039L241.589 547.472C241.266 545.602 242.521 543.824 244.391 543.501C245.307 543.343 246.248 543.563 246.999 544.11C252.042 547.78 257.088 551.446 262.135 555.109C264.046 556.5 266.229 558.109 268.319 559.848C268.521 558.869 268.732 557.886 268.943 556.918C269.346 555.062 271.178 553.884 273.034 554.288C273.942 554.485 274.732 555.042 275.223 555.832L279.106 562.07C281.938 566.626 284.438 571.115 283.928 575.957C283.931 576.016 283.926 576.075 283.915 576.132C283.813 576.928 283.624 577.71 283.352 578.464L283.233 578.794Z" fill="#F0F0F0"/>
<path d="M316.542 579.511L1.1845 579.819C0.526906 579.815 -0.00340355 579.279 1.64492e-05 578.622C0.00343645 577.969 0.531756 577.441 1.1845 577.437L316.542 577.13C317.2 577.133 317.73 577.669 317.726 578.327C317.723 578.98 317.195 579.508 316.542 579.511Z" fill="#CACACA"/>
<path d="M452.144 204.224H397.139C396.306 204.223 395.509 203.892 394.92 203.304C394.332 202.716 394.001 201.918 394 201.086V152.138C394.001 151.306 394.332 150.508 394.92 149.92C395.509 149.332 396.306 149.001 397.139 149H452.144C452.976 149.001 453.774 149.332 454.362 149.92C454.951 150.508 455.282 151.306 455.283 152.138V201.086C455.282 201.918 454.951 202.716 454.362 203.304C453.774 203.892 452.976 204.223 452.144 204.224Z" fill="#E6E6E6"/>
</g>
<defs>
<clipPath id="clip0_2_203">
<rect width="538.716" height="579.819" fill="white"/>
</clipPath>
</defs>
</svg>
