<svg width="737" height="462" viewBox="0 0 737 462" fill="none" xmlns="http://www.w3.org/2000/svg">
<g clip-path="url(#clip0_1_2)">
<path d="M525.662 233.529H17.092C12.5605 233.523 8.21615 231.721 5.01192 228.517C1.80768 225.312 0.00523504 220.968 0 216.437V17.092C0.00523504 12.5605 1.80768 8.21612 5.01192 5.01189C8.21615 1.80765 12.5605 0.00520452 17.092 -3.05176e-05H525.662C530.194 0.00520452 534.538 1.80765 537.742 5.01189C540.946 8.21612 542.749 12.5605 542.754 17.092V216.437C542.749 220.968 540.946 225.312 537.742 228.517C534.538 231.721 530.194 233.523 525.662 233.529Z" fill="#F2F2F2"/>
<path d="M407.052 222.628H97.8196C74.776 222.602 52.6837 213.436 36.3894 197.142C20.0951 180.847 10.9296 158.755 10.9036 135.712V97.8264C10.9295 74.7827 20.0951 52.6904 36.3893 36.396C52.6836 20.1016 74.7759 10.9359 97.8196 10.9098H444.937C467.981 10.9359 490.073 20.1016 506.367 36.396C522.662 52.6904 531.827 74.7827 531.853 97.8264C531.816 130.914 518.655 162.636 495.258 186.033C471.862 209.429 440.14 222.59 407.052 222.628Z" fill="white"/>
<path d="M327.283 67.9756H122.876C121.707 67.9756 120.586 67.5111 119.759 66.6845C118.933 65.8578 118.468 64.7366 118.468 63.5675C118.468 62.3985 118.933 61.2773 119.759 60.4506C120.586 59.6239 121.707 59.1595 122.876 59.1595H327.283C328.452 59.1595 329.573 59.6239 330.4 60.4506C331.226 61.2773 331.691 62.3985 331.691 63.5675C331.691 64.7366 331.226 65.8578 330.4 66.6845C329.573 67.5111 328.452 67.9756 327.283 67.9756Z" fill="#E6E6E6"/>
<path d="M430.757 115.006H122.876C121.707 115.006 120.586 114.542 119.759 113.715C118.933 112.889 118.468 111.767 118.468 110.598C118.468 109.429 118.933 108.308 119.759 107.481C120.586 106.655 121.707 106.19 122.876 106.19H430.757C431.926 106.19 433.047 106.655 433.874 107.481C434.7 108.308 435.165 109.429 435.165 110.598C435.165 111.767 434.7 112.889 433.874 113.715C433.047 114.542 431.926 115.006 430.757 115.006Z" fill="#E6E6E6"/>
<path d="M430.757 162.037H122.876C121.707 162.037 120.586 161.573 119.759 160.746C118.933 159.919 118.468 158.798 118.468 157.629C118.468 156.46 118.933 155.339 119.759 154.512C120.586 153.686 121.707 153.221 122.876 153.221H430.757C431.926 153.221 433.047 153.686 433.874 154.512C434.7 155.339 435.165 156.46 435.165 157.629C435.165 158.798 434.7 159.919 433.874 160.746C433.047 161.573 431.926 162.037 430.757 162.037Z" fill="#E6E6E6"/>
<path d="M430.757 162.037H122.876C121.707 162.037 120.586 161.573 119.759 160.746C118.933 159.919 118.468 158.798 118.468 157.629C118.468 156.46 118.933 155.339 119.759 154.512C120.586 153.686 121.707 153.221 122.876 153.221H430.757C431.926 153.221 433.047 153.686 433.874 154.512C434.7 155.339 435.165 156.46 435.165 157.629C435.165 158.798 434.7 159.919 433.874 160.746C433.047 161.573 431.926 162.037 430.757 162.037Z" fill="#E6E6E6"/>
<path d="M400.956 81.1405C403.775 65.7787 410.364 52.3289 421.946 41.4118C422.372 40.6082 423.099 40.0063 423.968 39.7381C424.837 39.4699 425.777 39.5573 426.582 39.9813L456.586 55.8333C457.389 56.259 457.991 56.9862 458.259 57.8551C458.527 58.7241 458.44 59.664 458.016 60.4686L437.026 100.197C436.6 101.001 435.873 101.603 435.004 101.871C434.135 102.139 433.195 102.052 432.391 101.628L402.387 85.7759C401.583 85.3501 400.981 84.623 400.713 83.754C400.445 82.885 400.532 81.9451 400.956 81.1405Z" fill="#E6E6E6"/>
<path d="M409.598 70.3567C409.969 62.338 415.816 53.6624 423.092 44.8155C423.491 44.0629 424.172 43.4991 424.985 43.248C425.799 42.9968 426.679 43.0787 427.433 43.4758L453.219 57.0993C453.972 57.498 454.535 58.1789 454.787 58.9928C455.038 59.8066 454.956 60.6869 454.559 61.4405L435.881 96.7936C435.482 97.5462 434.801 98.11 433.987 98.3611C433.173 98.6123 432.293 98.5303 431.539 98.1333L415.566 89.6938C412.213 87.9178 409.702 84.8844 408.583 81.2593C407.464 77.6341 407.829 73.7132 409.598 70.3567Z" fill="white"/>
<path d="M439.877 75.4729L419.741 64.9059C419.422 64.7369 419.183 64.4484 419.077 64.1037C418.97 63.7589 419.004 63.3859 419.172 63.0663C419.34 62.7467 419.627 62.5065 419.971 62.3985C420.316 62.2904 420.689 62.3232 421.009 62.4896L441.145 73.0566C441.464 73.2256 441.703 73.514 441.81 73.8588C441.916 74.2036 441.882 74.5767 441.714 74.8963C441.547 75.2158 441.259 75.456 440.915 75.564C440.57 75.6721 440.197 75.6393 439.877 75.4729Z" fill="#92140C"/>
<path d="M427.648 60.6051L423.218 58.2803C423.059 58.1975 422.917 58.084 422.802 57.9464C422.687 57.8088 422.599 57.6497 422.546 57.4783C422.492 57.3069 422.472 57.1266 422.489 56.9476C422.505 56.7687 422.556 56.5948 422.639 56.4357C422.723 56.2767 422.837 56.1356 422.975 56.0208C423.113 55.9059 423.272 55.8194 423.444 55.7663C423.616 55.7132 423.796 55.6945 423.975 55.7113C424.154 55.7281 424.327 55.78 424.486 55.8641L428.916 58.1888C429.235 58.3578 429.474 58.6463 429.581 58.991C429.687 59.3358 429.653 59.7089 429.485 60.0285C429.318 60.3481 429.03 60.5882 428.686 60.6962C428.341 60.8043 427.968 60.7716 427.648 60.6051Z" fill="#92140C"/>
<path d="M434.302 86.0955L414.167 75.5285C413.847 75.3597 413.608 75.0712 413.501 74.7263C413.394 74.3813 413.428 74.0081 413.596 73.6883C413.764 73.3685 414.052 73.1282 414.396 73.0203C414.741 72.9123 415.114 72.9454 415.435 73.1122L435.57 83.6792C435.889 83.8482 436.128 84.1366 436.235 84.4814C436.342 84.8262 436.307 85.1992 436.14 85.5188C435.972 85.8384 435.684 86.0785 435.34 86.1866C434.996 86.2947 434.622 86.2619 434.302 86.0955Z" fill="#92140C"/>
<path d="M437.09 80.7842L416.954 70.2172C416.795 70.1344 416.653 70.0209 416.538 69.8832C416.422 69.7456 416.335 69.5865 416.281 69.4151C416.228 69.2437 416.208 69.0634 416.224 68.8845C416.24 68.7056 416.292 68.5316 416.375 68.3725C416.459 68.2135 416.573 68.0725 416.711 67.9576C416.849 67.8428 417.008 67.7563 417.18 67.7032C417.351 67.6501 417.532 67.6313 417.711 67.6481C417.889 67.6649 418.063 67.7168 418.222 67.8009L438.358 78.3679C438.677 78.5369 438.916 78.8254 439.022 79.1701C439.129 79.5149 439.095 79.888 438.927 80.2076C438.759 80.5272 438.472 80.7673 438.127 80.8753C437.783 80.9834 437.41 80.9506 437.09 80.7842Z" fill="#92140C"/>
<path d="M617.922 350.744H607.506C607.014 350.744 606.526 350.841 606.071 351.029C605.616 351.218 605.203 351.494 604.854 351.842C604.506 352.191 604.23 352.604 604.042 353.059C603.853 353.514 603.756 354.002 603.756 354.494C603.756 355.489 603.361 356.443 602.658 357.146C601.954 357.85 601 358.245 600.006 358.245H565.283C564.79 358.245 564.302 358.148 563.847 357.959C563.392 357.771 562.979 357.494 562.631 357.146C562.282 356.798 562.006 356.385 561.818 355.93C561.629 355.474 561.532 354.987 561.532 354.494L560.846 350.692L554.552 342.668C554.345 342.401 554.08 342.185 553.777 342.038C553.473 341.891 553.14 341.815 552.802 341.819H540.999C540.409 341.819 539.844 342.054 539.428 342.47C539.011 342.887 538.777 343.452 538.776 344.041L538.532 350.692H534.07C533.132 350.692 532.204 350.877 531.338 351.236C530.473 351.594 529.686 352.12 529.023 352.783C528.36 353.446 527.835 354.232 527.476 355.098C527.117 355.964 526.933 356.892 526.933 357.83V404.313C526.933 405.145 527.096 405.969 527.415 406.737C527.733 407.505 528.2 408.204 528.788 408.792C529.376 409.38 530.074 409.847 530.842 410.165C531.611 410.483 532.434 410.647 533.266 410.647H617.922C619.601 410.645 621.21 409.977 622.397 408.789C623.584 407.602 624.252 405.992 624.254 404.313V357.076C624.254 356.244 624.09 355.421 623.772 354.653C623.453 353.884 622.987 353.186 622.399 352.598C621.811 352.01 621.113 351.544 620.345 351.226C619.577 350.908 618.753 350.744 617.922 350.744Z" fill="#F2F2F2"/>
<path d="M560.849 350.521H538.776V343.87C538.777 343.28 539.011 342.715 539.428 342.299C539.844 341.882 540.409 341.648 540.999 341.647H552.802C553.14 341.644 553.473 341.719 553.777 341.866C554.08 342.014 554.345 342.229 554.551 342.497L560.849 350.521Z" fill="#E6E6E6"/>
<path d="M572.151 405.532H535.295C534.128 405.531 533.009 405.067 532.184 404.242C531.359 403.417 530.895 402.298 530.894 401.131V391.052C530.895 389.885 531.359 388.767 532.184 387.942C533.009 387.117 534.128 386.653 535.295 386.651H579.531C580.698 386.653 581.816 387.117 582.641 387.942C583.466 388.767 583.93 389.885 583.931 391.052V393.751C583.928 396.875 582.686 399.869 580.477 402.078C578.269 404.286 575.274 405.528 572.151 405.532Z" fill="white"/>
<path d="M545.904 394.254H536.807C536.215 394.254 535.648 394.019 535.229 393.601C534.811 393.183 534.576 392.615 534.576 392.023C534.576 391.431 534.811 390.864 535.229 390.445C535.648 390.027 536.215 389.792 536.807 389.792H545.904C546.496 389.792 547.063 390.027 547.482 390.445C547.9 390.864 548.135 391.431 548.135 392.023C548.135 392.615 547.9 393.183 547.482 393.601C547.063 394.019 546.496 394.254 545.904 394.254Z" fill="#F2F2F2"/>
<path d="M576.8 401.292H536.807C536.514 401.292 536.223 401.235 535.952 401.123C535.681 401.011 535.434 400.847 535.226 400.64C535.019 400.433 534.854 400.186 534.741 399.915C534.629 399.644 534.571 399.354 534.571 399.06C534.571 398.767 534.629 398.477 534.741 398.205C534.854 397.934 535.019 397.688 535.226 397.481C535.434 397.274 535.681 397.11 535.952 396.998C536.223 396.886 536.514 396.829 536.807 396.829H576.8C577.391 396.829 577.959 397.064 578.377 397.483C578.796 397.901 579.031 398.469 579.031 399.06C579.031 399.652 578.796 400.22 578.377 400.638C577.959 401.057 577.391 401.292 576.8 401.292Z" fill="#F2F2F2"/>
<path d="M654.922 401.744H644.506C644.014 401.744 643.526 401.841 643.071 402.029C642.616 402.218 642.203 402.494 641.854 402.842C641.506 403.191 641.23 403.604 641.042 404.059C640.853 404.514 640.756 405.002 640.756 405.494C640.756 406.489 640.361 407.443 639.658 408.146C638.954 408.85 638 409.245 637.006 409.245H602.283C601.79 409.245 601.302 409.148 600.847 408.959C600.392 408.771 599.979 408.494 599.631 408.146C599.282 407.798 599.006 407.385 598.818 406.93C598.629 406.474 598.532 405.987 598.532 405.494L597.846 401.692L591.552 393.668C591.345 393.401 591.08 393.185 590.777 393.038C590.473 392.891 590.14 392.815 589.802 392.819H577.999C577.409 392.819 576.844 393.054 576.428 393.47C576.011 393.887 575.777 394.452 575.776 395.041L575.532 401.692H571.07C570.132 401.692 569.204 401.877 568.338 402.236C567.473 402.594 566.686 403.12 566.023 403.783C565.36 404.446 564.835 405.232 564.476 406.098C564.117 406.964 563.933 407.892 563.933 408.83V455.313C563.933 456.145 564.096 456.969 564.415 457.737C564.733 458.505 565.2 459.204 565.788 459.792C566.376 460.38 567.074 460.847 567.842 461.165C568.611 461.483 569.434 461.647 570.266 461.647H654.922C656.601 461.645 658.21 460.977 659.397 459.789C660.584 458.602 661.252 456.992 661.254 455.313V408.076C661.254 407.244 661.09 406.421 660.772 405.653C660.453 404.884 659.987 404.186 659.399 403.598C658.811 403.01 658.113 402.544 657.345 402.226C656.577 401.908 655.753 401.744 654.922 401.744Z" fill="#F2F2F2"/>
<path d="M597.849 401.521H575.776V394.87C575.777 394.28 576.011 393.715 576.428 393.299C576.844 392.882 577.409 392.648 577.999 392.647H589.802C590.14 392.644 590.473 392.719 590.777 392.866C591.08 393.014 591.345 393.229 591.551 393.497L597.849 401.521Z" fill="#E6E6E6"/>
<path d="M609.151 456.532H572.295C571.128 456.531 570.009 456.067 569.184 455.242C568.359 454.417 567.895 453.298 567.894 452.131V442.052C567.895 440.885 568.359 439.767 569.184 438.942C570.009 438.117 571.128 437.653 572.295 437.651H616.531C617.698 437.653 618.816 438.117 619.641 438.942C620.466 439.767 620.93 440.885 620.931 442.052V444.751C620.928 447.875 619.686 450.869 617.477 453.078C615.269 455.286 612.274 456.528 609.151 456.532Z" fill="white"/>
<path d="M582.904 445.254H573.807C573.215 445.254 572.648 445.019 572.229 444.601C571.811 444.183 571.576 443.615 571.576 443.023C571.576 442.431 571.811 441.864 572.229 441.445C572.648 441.027 573.215 440.792 573.807 440.792H582.904C583.496 440.792 584.063 441.027 584.482 441.445C584.9 441.864 585.135 442.431 585.135 443.023C585.135 443.615 584.9 444.183 584.482 444.601C584.063 445.019 583.496 445.254 582.904 445.254Z" fill="#F2F2F2"/>
<path d="M613.8 452.292H573.807C573.514 452.292 573.223 452.235 572.952 452.123C572.681 452.011 572.434 451.847 572.226 451.64C572.019 451.433 571.854 451.186 571.741 450.915C571.629 450.644 571.571 450.354 571.571 450.06C571.571 449.767 571.629 449.477 571.741 449.205C571.854 448.934 572.019 448.688 572.226 448.481C572.434 448.274 572.681 448.11 572.952 447.998C573.223 447.886 573.514 447.829 573.807 447.829H613.8C614.391 447.829 614.959 448.064 615.377 448.483C615.796 448.901 616.031 449.469 616.031 450.06C616.031 450.652 615.796 451.22 615.377 451.638C614.959 452.057 614.391 452.292 613.8 452.292Z" fill="#F2F2F2"/>
<path d="M447.807 336.246C433.469 317.176 425.182 295.851 424.911 271.538C424.449 270.228 424.526 268.788 425.124 267.534C425.722 266.28 426.794 265.315 428.103 264.85L476.972 247.559C478.283 247.097 479.722 247.173 480.976 247.772C482.23 248.37 483.195 249.442 483.66 250.751L506.556 315.459C507.018 316.769 506.941 318.209 506.343 319.463C505.744 320.717 504.673 321.682 503.364 322.147L454.494 339.438C453.184 339.9 451.744 339.824 450.49 339.225C449.237 338.627 448.271 337.555 447.807 336.246Z" fill="#E6E6E6"/>
<path d="M444.64 315.375C436.017 306.657 432.326 291.106 429.92 273.775C429.488 272.548 429.559 271.199 430.12 270.025C430.68 268.851 431.684 267.947 432.91 267.511L474.909 252.651C476.136 252.218 477.485 252.29 478.659 252.851C479.833 253.411 480.737 254.414 481.172 255.64L501.546 313.222C501.979 314.449 501.907 315.798 501.347 316.972C500.786 318.146 499.783 319.05 498.557 319.486L472.539 328.691C467.073 330.618 461.066 330.299 455.836 327.802C450.606 325.306 446.579 320.837 444.64 315.375Z" fill="white"/>
<path d="M481.735 286.66L449.018 298.338C448.498 298.524 447.925 298.495 447.425 298.258C446.926 298.022 446.541 297.596 446.355 297.076C446.169 296.555 446.198 295.982 446.434 295.482C446.671 294.983 447.096 294.598 447.617 294.412L480.333 282.734C480.591 282.642 480.864 282.602 481.138 282.615C481.411 282.629 481.679 282.696 481.926 282.814C482.174 282.931 482.396 283.096 482.579 283.298C482.763 283.501 482.905 283.739 482.997 283.996C483.089 284.254 483.129 284.527 483.116 284.801C483.102 285.074 483.035 285.342 482.917 285.59C482.8 285.837 482.635 286.059 482.432 286.242C482.23 286.426 481.992 286.568 481.735 286.66Z" fill="#92140C"/>
<path d="M452.373 285.004L445.176 287.573C444.656 287.757 444.083 287.728 443.585 287.491C443.086 287.254 442.702 286.829 442.516 286.309C442.331 285.789 442.359 285.217 442.595 284.718C442.831 284.219 443.255 283.834 443.775 283.647L450.972 281.078C451.492 280.893 452.065 280.923 452.563 281.16C453.062 281.397 453.446 281.822 453.632 282.342C453.817 282.861 453.789 283.434 453.553 283.933C453.317 284.432 452.893 284.817 452.373 285.004Z" fill="#92140C"/>
<path d="M487.895 303.919L455.179 315.597C454.921 315.689 454.648 315.73 454.375 315.716C454.101 315.702 453.833 315.635 453.586 315.518C453.339 315.401 453.117 315.236 452.933 315.033C452.749 314.83 452.608 314.593 452.516 314.335C452.424 314.077 452.383 313.804 452.397 313.531C452.411 313.257 452.478 312.989 452.595 312.742C452.712 312.495 452.877 312.273 453.08 312.089C453.283 311.905 453.52 311.764 453.778 311.672L486.494 299.994C486.752 299.902 487.025 299.861 487.299 299.875C487.572 299.888 487.84 299.956 488.087 300.073C488.335 300.19 488.556 300.355 488.74 300.558C488.924 300.761 489.066 300.998 489.158 301.256C489.25 301.514 489.29 301.787 489.276 302.06C489.263 302.334 489.195 302.602 489.078 302.849C488.961 303.096 488.796 303.318 488.593 303.502C488.39 303.686 488.153 303.827 487.895 303.919Z" fill="#92140C"/>
<path d="M484.815 295.29L452.099 306.968C451.841 307.06 451.568 307.1 451.294 307.086C451.021 307.073 450.753 307.005 450.506 306.888C450.258 306.771 450.036 306.606 449.853 306.403C449.669 306.2 449.527 305.963 449.435 305.705C449.343 305.448 449.303 305.174 449.317 304.901C449.33 304.627 449.398 304.359 449.515 304.112C449.632 303.865 449.797 303.643 450 303.459C450.203 303.276 450.44 303.134 450.698 303.042L483.414 291.364C483.934 291.178 484.507 291.207 485.007 291.443C485.506 291.68 485.891 292.105 486.077 292.626C486.263 293.147 486.235 293.72 485.998 294.219C485.761 294.719 485.336 295.104 484.815 295.29Z" fill="#92140C"/>
<path d="M504.675 254.126C490.894 246.777 480.078 236.417 473.192 222.068C472.555 221.418 472.202 220.543 472.21 219.633C472.219 218.724 472.587 217.855 473.235 217.217L497.446 193.44C498.096 192.803 498.971 192.45 499.881 192.458C500.79 192.467 501.659 192.835 502.297 193.483L533.781 225.541C534.418 226.191 534.77 227.066 534.762 227.976C534.754 228.885 534.385 229.754 533.737 230.392L509.526 254.17C508.877 254.806 508.001 255.159 507.092 255.151C506.182 255.142 505.313 254.774 504.675 254.126Z" fill="#E6E6E6"/>
<path d="M497.023 242.619C489.495 239.832 483.004 231.627 476.782 222.009C476.186 221.401 475.856 220.581 475.863 219.729C475.871 218.878 476.216 218.064 476.823 217.466L497.631 197.032C498.239 196.436 499.059 196.105 499.911 196.113C500.762 196.12 501.576 196.466 502.174 197.073L530.19 225.6C530.786 226.208 531.117 227.028 531.109 227.88C531.101 228.732 530.756 229.545 530.149 230.143L517.259 242.802C514.55 245.457 510.897 246.929 507.103 246.895C503.31 246.861 499.684 245.323 497.023 242.619Z" fill="white"/>
<path d="M511.088 215.321L494.908 231.3C494.781 231.426 494.63 231.525 494.464 231.593C494.298 231.66 494.12 231.695 493.941 231.694C493.762 231.692 493.584 231.656 493.419 231.587C493.254 231.517 493.104 231.415 492.978 231.288C492.852 231.16 492.753 231.009 492.685 230.843C492.618 230.677 492.583 230.5 492.585 230.32C492.586 230.141 492.622 229.964 492.692 229.799C492.762 229.634 492.863 229.484 492.991 229.358L509.171 213.379C509.298 213.253 509.449 213.154 509.615 213.086C509.781 213.018 509.959 212.984 510.138 212.985C510.317 212.986 510.495 213.023 510.66 213.092C510.825 213.162 510.975 213.263 511.101 213.391C511.227 213.519 511.326 213.67 511.394 213.836C511.461 214.002 511.495 214.179 511.494 214.359C511.493 214.538 511.457 214.715 511.387 214.88C511.317 215.045 511.216 215.195 511.088 215.321Z" fill="#92140C"/>
<path d="M493.21 222.46L489.65 225.976C489.393 226.23 489.045 226.371 488.683 226.369C488.321 226.367 487.975 226.221 487.721 225.964C487.467 225.706 487.325 225.358 487.327 224.996C487.33 224.634 487.476 224.288 487.733 224.034L491.293 220.519C491.42 220.392 491.571 220.292 491.737 220.224C491.903 220.156 492.081 220.122 492.26 220.123C492.44 220.124 492.617 220.16 492.783 220.23C492.948 220.299 493.098 220.401 493.224 220.529C493.35 220.656 493.45 220.808 493.518 220.974C493.585 221.14 493.619 221.318 493.618 221.497C493.617 221.677 493.58 221.854 493.51 222.02C493.44 222.185 493.338 222.335 493.21 222.46Z" fill="#92140C"/>
<path d="M519.518 223.857L503.338 239.835C503.21 239.961 503.059 240.061 502.893 240.129C502.727 240.196 502.55 240.23 502.37 240.229C502.191 240.228 502.014 240.192 501.849 240.122C501.684 240.053 501.534 239.951 501.408 239.824C501.282 239.696 501.182 239.545 501.115 239.379C501.047 239.213 501.013 239.035 501.014 238.856C501.015 238.677 501.052 238.5 501.121 238.334C501.191 238.169 501.293 238.02 501.42 237.894L517.6 221.915C517.728 221.789 517.879 221.689 518.045 221.622C518.211 221.554 518.388 221.52 518.568 221.521C518.747 221.522 518.924 221.559 519.089 221.628C519.254 221.698 519.404 221.799 519.53 221.927C519.656 222.054 519.756 222.205 519.823 222.371C519.891 222.537 519.925 222.715 519.924 222.894C519.923 223.074 519.886 223.251 519.816 223.416C519.747 223.581 519.645 223.731 519.518 223.857Z" fill="#92140C"/>
<path d="M515.303 219.589L499.123 235.567C498.995 235.694 498.844 235.794 498.678 235.862C498.512 235.93 498.334 235.964 498.155 235.963C497.976 235.962 497.798 235.926 497.633 235.856C497.467 235.787 497.317 235.685 497.191 235.558C497.065 235.43 496.965 235.279 496.898 235.112C496.83 234.946 496.796 234.768 496.798 234.589C496.799 234.409 496.836 234.232 496.906 234.067C496.976 233.901 497.077 233.752 497.205 233.626L513.385 217.647C513.643 217.393 513.991 217.252 514.353 217.254C514.714 217.256 515.06 217.402 515.315 217.66C515.569 217.917 515.71 218.265 515.708 218.627C515.706 218.988 515.56 219.335 515.303 219.589Z" fill="#92140C"/>
<path d="M734.887 461.657L72.1374 460.964C71.8222 460.963 71.5203 460.837 71.2977 460.614C71.0752 460.391 70.9502 460.089 70.9502 459.773C70.9502 459.458 71.0752 459.156 71.2977 458.933C71.5203 458.71 71.8222 458.584 72.1374 458.583L734.887 459.275C735.044 459.275 735.199 459.305 735.344 459.365C735.489 459.425 735.621 459.512 735.732 459.623C735.842 459.734 735.931 459.865 735.991 460.01C736.051 460.154 736.082 460.309 736.082 460.466C736.082 460.623 736.051 460.778 735.991 460.923C735.931 461.067 735.842 461.199 735.732 461.309C735.621 461.42 735.489 461.508 735.344 461.567C735.199 461.627 735.044 461.657 734.887 461.657Z" fill="#CACACA"/>
<path d="M248.983 199.381C241.135 185.878 237.394 171.376 239.095 155.55C238.895 154.663 239.056 153.733 239.542 152.964C240.028 152.195 240.799 151.65 241.686 151.449L274.788 143.981C275.675 143.782 276.605 143.943 277.374 144.429C278.143 144.915 278.688 145.686 278.889 146.572L288.778 190.403C288.977 191.291 288.816 192.221 288.33 192.99C287.844 193.759 287.073 194.303 286.186 194.504L253.084 201.973C252.197 202.172 251.267 202.011 250.498 201.525C249.729 201.039 249.184 200.268 248.983 199.381Z" fill="#E6E6E6"/>
<path d="M248.536 185.57C243.603 179.237 242.404 168.843 242.178 157.391C241.992 156.56 242.143 155.689 242.597 154.969C243.052 154.249 243.774 153.739 244.605 153.55L273.054 147.132C273.885 146.946 274.756 147.096 275.476 147.551C276.196 148.006 276.706 148.728 276.894 149.559L285.694 188.563C285.88 189.394 285.73 190.265 285.275 190.985C284.82 191.705 284.098 192.215 283.267 192.403L265.644 196.379C261.942 197.21 258.062 196.539 254.855 194.512C251.647 192.486 249.375 189.27 248.536 185.57Z" fill="white"/>
<path d="M259.601 164.04C260.181 163.371 260.961 162.908 261.826 162.72C262.69 162.531 263.593 162.627 264.398 162.994C265.203 163.422 265.847 164.099 266.235 164.925C266.622 165.75 266.73 166.679 266.544 167.571C266.232 169.634 265.155 171.512 265.057 173.625C264.969 174.55 265.13 175.482 265.525 176.323C265.919 177.165 266.531 177.886 267.298 178.411C268.473 179.124 269.682 177.358 268.502 176.641C266.56 175.461 267.212 172.868 267.776 171.099C268.479 168.89 269.212 166.639 268.342 164.363C267.957 163.41 267.339 162.569 266.545 161.917C265.75 161.265 264.805 160.822 263.796 160.63C262.786 160.437 261.745 160.501 260.766 160.815C259.787 161.128 258.903 161.683 258.194 162.427C257.267 163.426 258.663 165.052 259.601 164.04Z" fill="#92140C"/>
<path d="M269.029 184.579C270.211 184.579 271.17 183.621 271.17 182.439C271.17 181.257 270.211 180.298 269.029 180.298C267.847 180.298 266.889 181.257 266.889 182.439C266.889 183.621 267.847 184.579 269.029 184.579Z" fill="#92140C"/>
<path d="M59.7759 106.159C51.9279 92.6558 48.1872 78.1536 49.8873 62.3281C49.6882 61.4407 49.8492 60.5106 50.335 59.7418C50.8207 58.973 51.5916 58.4282 52.4785 58.2271L85.5807 50.759C86.4681 50.5599 87.3982 50.7209 88.167 51.2066C88.9358 51.6924 89.4806 52.4634 89.6817 53.3503L99.5703 97.1813C99.7694 98.0686 99.6084 98.9988 99.1227 99.7676C98.6369 100.536 97.866 101.081 96.9791 101.282L63.8769 108.75C62.9895 108.95 62.0594 108.789 61.2906 108.303C60.5218 107.817 59.977 107.046 59.7759 106.159Z" fill="#E6E6E6"/>
<path d="M59.3282 92.3475C54.3957 86.0143 53.1966 75.621 52.9709 64.1689C52.7844 63.3379 52.9351 62.4668 53.3901 61.7467C53.845 61.0267 54.567 60.5165 55.3976 60.3282L83.8462 53.91C84.6772 53.7235 85.5484 53.8742 86.2684 54.3291C86.9885 54.7841 87.4987 55.5061 87.6871 56.3367L96.4866 95.3404C96.673 96.1714 96.5223 97.0425 96.0673 97.7626C95.6123 98.4826 94.8903 98.9928 94.0596 99.1811L76.4364 103.157C72.7346 103.988 68.8544 103.316 65.6471 101.29C62.4398 99.2634 60.1673 96.0474 59.3282 92.3475Z" fill="white"/>
<path d="M74.1973 95.3204C75.8541 95.3204 77.1973 93.9773 77.1973 92.3204C77.1973 90.6635 75.8541 89.3204 74.1973 89.3204C72.5404 89.3204 71.1973 90.6635 71.1973 92.3204C71.1973 93.9773 72.5404 95.3204 74.1973 95.3204Z" fill="#92140C"/>
<path d="M77.7825 63.8278C76.6278 62.4739 74.5151 62.6891 72.7671 63.0222C70.951 63.2861 69.1781 63.7908 67.4953 64.5231C66.6549 64.8939 65.8963 65.4275 65.2632 66.093C64.6301 66.7585 64.135 67.5427 63.8065 68.4005C63.1083 70.5417 63.8686 72.8685 64.7806 74.9276C66.5365 78.8882 68.8672 82.5681 71.6975 85.8484L73.1276 86.5107C75.3523 83.6764 76.9876 80.4256 77.937 76.9497C78.8863 73.4739 79.1307 69.8432 78.6556 66.2714C78.6013 65.3907 78.2986 64.5435 77.7825 63.8278Z" fill="#92140C"/>
<path d="M542.858 217.802L572.622 200.898L559.231 181.216L543.955 197.958L499.279 198.649C498.173 197.451 496.735 196.6 495.14 196.202C493.545 195.803 491.863 195.873 490.297 196.402C488.732 196.932 487.352 197.899 486.325 199.186C485.298 200.472 484.669 202.022 484.514 203.647C484.359 205.272 484.686 206.901 485.453 208.336C486.221 209.771 487.396 210.95 488.837 211.729C490.277 212.508 491.92 212.854 493.565 212.724C495.211 212.594 496.787 211.993 498.102 210.996L542.858 217.802Z" fill="#FFB6B6"/>
<path d="M601.016 176.556C602.143 186.837 548.776 219.678 548.021 217.652C545.877 211.895 544.9 198.444 541.578 196.147C539.679 194.834 554.154 183.963 554.154 183.963C554.154 183.963 561.799 177.076 571.81 168.407C574.595 165.904 577.968 164.133 581.614 163.258C585.261 162.383 589.063 162.432 592.666 163.402C592.666 163.402 599.889 166.274 601.016 176.556Z" fill="#111D4A"/>
<path d="M563.998 453L553.156 452.999L548 413L564 413.001L563.998 453Z" fill="#FFB6B6"/>
<path d="M566.999 464L532 463.999V463.578C532 460.14 533.436 456.843 535.99 454.412C538.545 451.981 542.01 450.615 545.623 450.615L552.017 446L563.945 450.616L567 450.616L566.999 464Z" fill="#47465B"/>
<path d="M659 440.194L649.584 445L627 410.093L640.899 403L659 440.194Z" fill="#FFB6B6"/>
<path d="M666 448.053L635.581 463L635.389 462.621C633.824 459.525 633.571 455.943 634.684 452.663C635.798 449.382 638.187 446.673 641.327 445.13L644.783 438.243L657.252 437.305L659.907 436L666 448.053Z" fill="#47465B"/>
<path d="M559.03 269L617.531 271.038L621.906 279.125C621.906 279.125 626.487 312.209 624.141 314.545C621.795 316.88 620.621 316.88 621.795 320.968C622.968 325.055 626.001 364.109 626.001 364.109C626.001 364.109 650.168 414.007 651.341 416.927C652.514 419.846 653.687 418.678 652.514 419.846C651.475 420.962 650.496 422.131 649.581 423.35H630.46C630.46 423.35 620.165 397.499 610.741 387.5C602.42 378.671 597.15 367.427 595.701 355.407L587.773 318.048L570.761 375.271C570.761 375.271 567.828 431.91 568.415 434.83L569.002 437.749L546.465 438C546.465 438 544.119 433.078 545.292 431.326C546.465 429.575 546.395 430.053 544.964 427.186C543.532 424.32 544.119 419.462 544.119 419.462C544.119 419.462 552.577 304.618 552.577 302.867C552.621 301.965 552.455 301.066 552.09 300.24V297.862L554.337 289.437L559.03 269Z" fill="#47465B"/>
<path d="M583.94 162.556C580.13 164.811 577.851 168.953 576.543 173.169C574.121 180.973 572.664 189.042 572.202 197.198L570.821 221.614C570.132 237.371 565.73 252.746 557.968 266.495C557.393 267.542 557.064 268.706 557.009 269.898C556.953 271.09 557.171 272.279 557.646 273.375C558.121 274.471 558.842 275.444 559.752 276.22C560.662 276.997 561.738 277.557 562.898 277.857C584.109 283.399 624.283 276.441 624.283 276.441C624.283 276.441 625.994 275.874 624.283 274.17C622.572 272.466 618.733 263.948 618.733 263.948L623.296 234.107L629 173.913C622.155 165.395 608.39 160.374 608.39 160.374L604.833 154L587.049 155.416L583.94 162.556Z" fill="#111D4A"/>
<path d="M595 151C604.389 151 612 143.389 612 134C612 124.611 604.389 117 595 117C585.611 117 578 124.611 578 134C578 143.389 585.611 151 595 151Z" fill="#FFB8B8"/>
<path d="M633.973 243.109L634 209L610.682 210.792L617.558 232.304L596.437 271.241C594.877 271.601 593.452 272.421 592.336 273.601C591.22 274.78 590.462 276.268 590.154 277.884C589.846 279.499 590.002 281.171 590.601 282.698C591.201 284.224 592.219 285.537 593.531 286.478C594.844 287.419 596.394 287.946 597.992 287.996C599.591 288.046 601.169 287.616 602.535 286.759C603.9 285.901 604.994 284.654 605.682 283.168C606.37 281.682 606.623 280.022 606.411 278.39L633.973 243.109Z" fill="#FFB6B6"/>
<path d="M626.836 172.654C636.24 176.733 638.365 238.348 636.251 237.999C630.244 237.005 618.186 231.243 614.581 232.95C612.52 233.926 610.253 216.251 610.253 216.251C610.253 216.251 608.07 206.355 605.511 193.567C604.721 189.965 604.849 186.22 605.882 182.681C606.915 179.142 608.821 175.924 611.421 173.326C611.421 173.326 617.432 168.574 626.836 172.654Z" fill="#111D4A"/>
<path d="M600.855 145.996C602.946 146.043 605.023 145.635 606.95 144.798C608.876 143.962 610.609 142.717 612.033 141.145C613.457 139.573 614.541 137.71 615.213 135.677C615.886 133.644 616.131 131.489 615.934 129.352C615.737 127.215 615.101 125.145 614.068 123.278C613.036 121.412 611.63 119.79 609.944 118.52C608.257 117.251 606.328 116.362 604.283 115.912C602.237 115.462 600.122 115.461 598.077 115.91C595.021 114.006 591.469 112.725 587.908 113.051C584.347 113.376 580.826 115.546 579.495 118.95C578.163 122.355 579.593 126.842 582.904 128.226C585.027 129.113 587.424 128.682 589.689 128.325C591.954 127.967 594.425 127.734 596.396 128.933C598.368 130.132 599.254 133.348 597.488 134.848C596.552 135.674 595.884 136.773 595.572 137.999C595.261 139.225 595.32 140.52 595.744 141.71C596.631 144.065 599.053 145.957 600.855 145.996Z" fill="#47465B"/>
</g>
<defs>
<clipPath id="clip0_1_2">
<rect width="736.078" height="461.657" fill="white"/>
</clipPath>
</defs>
</svg>
