<svg width="723" height="559" viewBox="0 0 723 559" fill="none" xmlns="http://www.w3.org/2000/svg">
<g clip-path="url(#clip0_2_60)">
<path d="M653.597 534.005H68.5154C58.2706 534.005 48.1563 531.707 38.9173 527.28C29.6784 522.853 21.5501 516.41 15.1312 508.425C8.71227 500.441 4.16615 491.118 1.82763 481.144C-0.510882 471.169 -0.582208 460.797 1.61889 450.792L27.7527 332.005H694.36L720.494 450.792C722.695 460.797 722.624 471.169 720.285 481.144C717.947 491.118 713.4 500.441 706.982 508.425C700.563 516.41 692.434 522.853 683.195 527.28C673.956 531.707 663.842 534.005 653.597 534.005ZM29.3601 334.005L3.57199 451.222C1.43522 460.935 1.50451 471.004 3.77478 480.687C6.04504 490.37 10.4584 499.421 16.69 507.172C22.9215 514.923 30.8124 521.178 39.7816 525.476C48.7507 529.774 58.5697 532.005 68.5153 532.005H653.597C663.543 532.005 673.362 529.774 682.331 525.476C691.3 521.178 699.191 514.923 705.423 507.172C711.654 499.421 716.068 490.37 718.338 480.687C720.608 471.004 720.677 460.935 718.541 451.222L692.753 334.005H29.3601Z" fill="#F2F2F2"/>
<path d="M112.767 437H93.767C89.5235 437 85.4539 438.686 82.4533 441.686C79.4527 444.687 77.767 448.757 77.767 453C77.767 457.243 79.4527 461.313 82.4533 464.314C85.4539 467.314 89.5235 469 93.767 469H112.767C117.01 469 121.08 467.314 124.081 464.314C127.081 461.313 128.767 457.243 128.767 453C128.767 448.757 127.081 444.687 124.081 441.686C121.08 438.686 117.01 437 112.767 437Z" fill="#E6E6E6"/>
<path d="M173.767 437H154.767C150.524 437 146.454 438.686 143.453 441.686C140.453 444.687 138.767 448.757 138.767 453C138.767 457.243 140.453 461.313 143.453 464.314C146.454 467.314 150.524 469 154.767 469H173.767C178.01 469 182.08 467.314 185.081 464.314C188.081 461.313 189.767 457.243 189.767 453C189.767 448.757 188.081 444.687 185.081 441.686C182.08 438.686 178.01 437 173.767 437Z" fill="#E6E6E6"/>
<path d="M234.767 437H215.767C211.524 437 207.454 438.686 204.453 441.686C201.453 444.687 199.767 448.757 199.767 453C199.767 457.243 201.453 461.313 204.453 464.314C207.454 467.314 211.524 469 215.767 469H234.767C239.01 469 243.08 467.314 246.081 464.314C249.081 461.313 250.767 457.243 250.767 453C250.767 448.757 249.081 444.687 246.081 441.686C243.08 438.686 239.01 437 234.767 437Z" fill="#E6E6E6"/>
<path d="M295.767 437H276.767C272.524 437 268.454 438.686 265.453 441.686C262.453 444.687 260.767 448.757 260.767 453C260.767 457.243 262.453 461.313 265.453 464.314C268.454 467.314 272.524 469 276.767 469H295.767C300.01 469 304.08 467.314 307.081 464.314C310.081 461.313 311.767 457.243 311.767 453C311.767 448.757 310.081 444.687 307.081 441.686C304.08 438.686 300.01 437 295.767 437Z" fill="#E6E6E6"/>
<path d="M356.767 437H337.767C333.524 437 329.454 438.686 326.453 441.686C323.453 444.687 321.767 448.757 321.767 453C321.767 457.243 323.453 461.313 326.453 464.314C329.454 467.314 333.524 469 337.767 469H356.767C361.01 469 365.08 467.314 368.081 464.314C371.081 461.313 372.767 457.243 372.767 453C372.767 448.757 371.081 444.687 368.081 441.686C365.08 438.686 361.01 437 356.767 437Z" fill="#E6E6E6"/>
<path d="M417.767 437H398.767C394.524 437 390.454 438.686 387.453 441.686C384.453 444.687 382.767 448.757 382.767 453C382.767 457.243 384.453 461.313 387.453 464.314C390.454 467.314 394.524 469 398.767 469H417.767C422.01 469 426.08 467.314 429.081 464.314C432.081 461.313 433.767 457.243 433.767 453C433.767 448.757 432.081 444.687 429.081 441.686C426.08 438.686 422.01 437 417.767 437Z" fill="#E6E6E6"/>
<path d="M478.767 437H459.767C455.524 437 451.454 438.686 448.453 441.686C445.453 444.687 443.767 448.757 443.767 453C443.767 457.243 445.453 461.313 448.453 464.314C451.454 467.314 455.524 469 459.767 469H478.767C483.01 469 487.08 467.314 490.081 464.314C493.081 461.313 494.767 457.243 494.767 453C494.767 448.757 493.081 444.687 490.081 441.686C487.08 438.686 483.01 437 478.767 437Z" fill="#92140C"/>
<path d="M539.767 437H520.767C516.524 437 512.454 438.686 509.453 441.686C506.453 444.687 504.767 448.757 504.767 453C504.767 457.243 506.453 461.313 509.453 464.314C512.454 467.314 516.524 469 520.767 469H539.767C544.01 469 548.08 467.314 551.081 464.314C554.081 461.313 555.767 457.243 555.767 453C555.767 448.757 554.081 444.687 551.081 441.686C548.08 438.686 544.01 437 539.767 437Z" fill="#E6E6E6"/>
<path d="M600.767 437H581.767C577.523 437 573.454 438.686 570.453 441.686C567.453 444.687 565.767 448.757 565.767 453C565.767 457.243 567.453 461.313 570.453 464.314C573.454 467.314 577.523 469 581.767 469H600.767C605.01 469 609.08 467.314 612.081 464.314C615.081 461.313 616.767 457.243 616.767 453C616.767 448.757 615.081 444.687 612.081 441.686C609.08 438.686 605.01 437 600.767 437Z" fill="#E6E6E6"/>
<path d="M112.767 370H93.767C89.5235 370 85.4539 371.686 82.4533 374.686C79.4527 377.687 77.767 381.757 77.767 386C77.767 390.243 79.4527 394.313 82.4533 397.314C85.4539 400.314 89.5235 402 93.767 402H112.767C117.01 402 121.08 400.314 124.081 397.314C127.081 394.313 128.767 390.243 128.767 386C128.767 381.757 127.081 377.687 124.081 374.686C121.08 371.686 117.01 370 112.767 370Z" fill="#E6E6E6"/>
<path d="M173.767 370H154.767C150.524 370 146.454 371.686 143.453 374.686C140.453 377.687 138.767 381.757 138.767 386C138.767 390.243 140.453 394.313 143.453 397.314C146.454 400.314 150.524 402 154.767 402H173.767C178.01 402 182.08 400.314 185.081 397.314C188.081 394.313 189.767 390.243 189.767 386C189.767 381.757 188.081 377.687 185.081 374.686C182.08 371.686 178.01 370 173.767 370Z" fill="#E6E6E6"/>
<path d="M234.767 370H215.767C211.524 370 207.454 371.686 204.453 374.686C201.453 377.687 199.767 381.757 199.767 386C199.767 390.243 201.453 394.313 204.453 397.314C207.454 400.314 211.524 402 215.767 402H234.767C239.01 402 243.08 400.314 246.081 397.314C249.081 394.313 250.767 390.243 250.767 386C250.767 381.757 249.081 377.687 246.081 374.686C243.08 371.686 239.01 370 234.767 370Z" fill="#92140C"/>
<path d="M295.767 370H276.767C272.524 370 268.454 371.686 265.453 374.686C262.453 377.687 260.767 381.757 260.767 386C260.767 390.243 262.453 394.313 265.453 397.314C268.454 400.314 272.524 402 276.767 402H295.767C300.01 402 304.08 400.314 307.081 397.314C310.081 394.313 311.767 390.243 311.767 386C311.767 381.757 310.081 377.687 307.081 374.686C304.08 371.686 300.01 370 295.767 370Z" fill="#E6E6E6"/>
<path d="M356.767 370H337.767C333.524 370 329.454 371.686 326.453 374.686C323.453 377.687 321.767 381.757 321.767 386C321.767 390.243 323.453 394.313 326.453 397.314C329.454 400.314 333.524 402 337.767 402H356.767C361.01 402 365.08 400.314 368.081 397.314C371.081 394.313 372.767 390.243 372.767 386C372.767 381.757 371.081 377.687 368.081 374.686C365.08 371.686 361.01 370 356.767 370Z" fill="#E6E6E6"/>
<path d="M417.767 370H398.767C394.524 370 390.454 371.686 387.453 374.686C384.453 377.687 382.767 381.757 382.767 386C382.767 390.243 384.453 394.313 387.453 397.314C390.454 400.314 394.524 402 398.767 402H417.767C422.01 402 426.08 400.314 429.081 397.314C432.081 394.313 433.767 390.243 433.767 386C433.767 381.757 432.081 377.687 429.081 374.686C426.08 371.686 422.01 370 417.767 370Z" fill="#E6E6E6"/>
<path d="M478.767 370H459.767C455.524 370 451.454 371.686 448.453 374.686C445.453 377.687 443.767 381.757 443.767 386C443.767 390.243 445.453 394.313 448.453 397.314C451.454 400.314 455.524 402 459.767 402H478.767C483.01 402 487.08 400.314 490.081 397.314C493.081 394.313 494.767 390.243 494.767 386C494.767 381.757 493.081 377.687 490.081 374.686C487.08 371.686 483.01 370 478.767 370Z" fill="#E6E6E6"/>
<path d="M539.767 370H520.767C516.524 370 512.454 371.686 509.453 374.686C506.453 377.687 504.767 381.757 504.767 386C504.767 390.243 506.453 394.313 509.453 397.314C512.454 400.314 516.524 402 520.767 402H539.767C544.01 402 548.08 400.314 551.081 397.314C554.081 394.313 555.767 390.243 555.767 386C555.767 381.757 554.081 377.687 551.081 374.686C548.08 371.686 544.01 370 539.767 370Z" fill="#E6E6E6"/>
<path d="M600.767 370H581.767C577.523 370 573.454 371.686 570.453 374.686C567.453 377.687 565.767 381.757 565.767 386C565.767 390.243 567.453 394.313 570.453 397.314C573.454 400.314 577.523 402 581.767 402H600.767C605.01 402 609.08 400.314 612.081 397.314C615.081 394.313 616.767 390.243 616.767 386C616.767 381.757 615.081 377.687 612.081 374.686C609.08 371.686 605.01 370 600.767 370Z" fill="#E6E6E6"/>
<path d="M141.267 404.5H122.267C118.024 404.5 113.954 406.186 110.953 409.186C107.953 412.187 106.267 416.257 106.267 420.5C106.267 424.743 107.953 428.813 110.953 431.814C113.954 434.814 118.024 436.5 122.267 436.5H141.267C145.51 436.5 149.58 434.814 152.581 431.814C155.581 428.813 157.267 424.743 157.267 420.5C157.267 416.257 155.581 412.187 152.581 409.186C149.58 406.186 145.51 404.5 141.267 404.5Z" fill="#E6E6E6"/>
<path d="M202.267 404.5H183.267C179.024 404.5 174.954 406.186 171.953 409.186C168.953 412.187 167.267 416.257 167.267 420.5C167.267 424.743 168.953 428.813 171.953 431.814C174.954 434.814 179.024 436.5 183.267 436.5H202.267C206.51 436.5 210.58 434.814 213.581 431.814C216.581 428.813 218.267 424.743 218.267 420.5C218.267 416.257 216.581 412.187 213.581 409.186C210.58 406.186 206.51 404.5 202.267 404.5Z" fill="#E6E6E6"/>
<path d="M263.267 404.5H244.267C240.024 404.5 235.954 406.186 232.953 409.186C229.953 412.187 228.267 416.257 228.267 420.5C228.267 424.743 229.953 428.813 232.953 431.814C235.954 434.814 240.024 436.5 244.267 436.5H263.267C267.51 436.5 271.58 434.814 274.581 431.814C277.581 428.813 279.267 424.743 279.267 420.5C279.267 416.257 277.581 412.187 274.581 409.186C271.58 406.186 267.51 404.5 263.267 404.5Z" fill="#E6E6E6"/>
<path d="M324.267 404.5H305.267C301.024 404.5 296.954 406.186 293.953 409.186C290.953 412.187 289.267 416.257 289.267 420.5C289.267 424.743 290.953 428.813 293.953 431.814C296.954 434.814 301.024 436.5 305.267 436.5H324.267C328.51 436.5 332.58 434.814 335.581 431.814C338.581 428.813 340.267 424.743 340.267 420.5C340.267 416.257 338.581 412.187 335.581 409.186C332.58 406.186 328.51 404.5 324.267 404.5Z" fill="#E6E6E6"/>
<path d="M385.267 404.5H366.267C362.024 404.5 357.954 406.186 354.953 409.186C351.953 412.187 350.267 416.257 350.267 420.5C350.267 424.743 351.953 428.813 354.953 431.814C357.954 434.814 362.024 436.5 366.267 436.5H385.267C389.51 436.5 393.58 434.814 396.581 431.814C399.581 428.813 401.267 424.743 401.267 420.5C401.267 416.257 399.581 412.187 396.581 409.186C393.58 406.186 389.51 404.5 385.267 404.5Z" fill="#E6E6E6"/>
<path d="M446.267 404.5H427.267C423.024 404.5 418.954 406.186 415.953 409.186C412.953 412.187 411.267 416.257 411.267 420.5C411.267 424.743 412.953 428.813 415.953 431.814C418.954 434.814 423.024 436.5 427.267 436.5H446.267C450.51 436.5 454.58 434.814 457.581 431.814C460.581 428.813 462.267 424.743 462.267 420.5C462.267 416.257 460.581 412.187 457.581 409.186C454.58 406.186 450.51 404.5 446.267 404.5Z" fill="#E6E6E6"/>
<path d="M507.267 404.5H488.267C484.024 404.5 479.954 406.186 476.953 409.186C473.953 412.187 472.267 416.257 472.267 420.5C472.267 424.743 473.953 428.813 476.953 431.814C479.954 434.814 484.024 436.5 488.267 436.5H507.267C511.51 436.5 515.58 434.814 518.581 431.814C521.581 428.813 523.267 424.743 523.267 420.5C523.267 416.257 521.581 412.187 518.581 409.186C515.58 406.186 511.51 404.5 507.267 404.5Z" fill="#E6E6E6"/>
<path d="M568.267 404.5H549.267C545.023 404.5 540.954 406.186 537.953 409.186C534.953 412.187 533.267 416.257 533.267 420.5C533.267 424.743 534.953 428.813 537.953 431.814C540.954 434.814 545.023 436.5 549.267 436.5H568.267C572.51 436.5 576.58 434.814 579.581 431.814C582.581 428.813 584.267 424.743 584.267 420.5C584.267 416.257 582.581 412.187 579.581 409.186C576.58 406.186 572.51 404.5 568.267 404.5Z" fill="#E6E6E6"/>
<path d="M629.267 404.5H610.267C606.023 404.5 601.954 406.186 598.953 409.186C595.953 412.187 594.267 416.257 594.267 420.5C594.267 424.743 595.953 428.813 598.953 431.814C601.954 434.814 606.023 436.5 610.267 436.5H629.267C633.51 436.5 637.58 434.814 640.581 431.814C643.581 428.813 645.267 424.743 645.267 420.5C645.267 416.257 643.581 412.187 640.581 409.186C637.58 406.186 633.51 404.5 629.267 404.5Z" fill="#E6E6E6"/>
<path d="M558.899 333H164.135C157.873 332.993 151.87 330.502 147.442 326.075C143.015 321.647 140.524 315.644 140.517 309.382L140.543 309.156C154.509 248.729 154.503 172.975 140.526 70.7539L140.517 70.6182C140.524 64.3564 143.015 58.3532 147.442 53.9255C151.87 49.4978 157.873 47.0071 164.135 47H558.899C565.161 47.0071 571.164 49.4978 575.591 53.9255C580.019 58.3532 582.51 64.3565 582.517 70.6182L582.495 70.8272C565.604 149.378 565.604 230.622 582.495 309.173L582.517 309.382C582.51 315.644 580.019 321.647 575.592 326.075C571.164 330.502 565.161 332.993 558.899 333Z" fill="white"/>
<path d="M558.899 333H164.135C157.873 332.993 151.87 330.502 147.442 326.075C143.015 321.647 140.524 315.644 140.517 309.382L140.543 309.156C154.509 248.729 154.503 172.975 140.526 70.7539L140.517 70.6182C140.524 64.3564 143.015 58.3532 147.442 53.9255C151.87 49.4978 157.873 47.0071 164.135 47H558.899C565.161 47.0071 571.164 49.4978 575.591 53.9255C580.019 58.3532 582.51 64.3565 582.517 70.6182L582.495 70.8272C565.604 149.378 565.604 230.622 582.495 309.173L582.517 309.382C582.51 315.644 580.019 321.647 575.592 326.075C571.164 330.502 565.161 332.993 558.899 333ZM142.517 309.494C142.554 315.206 144.846 320.672 148.896 324.701C152.945 328.729 158.423 330.993 164.135 331H558.899C564.612 330.993 570.091 328.728 574.141 324.698C578.191 320.668 580.482 315.2 580.516 309.486C563.596 230.727 563.596 149.273 580.516 70.5137C580.482 64.8004 578.191 59.3324 574.141 55.3022C570.091 51.2719 564.612 49.0065 558.899 49H164.135C158.415 49.0065 152.931 51.277 148.88 55.3152C144.829 59.3534 142.541 64.831 142.517 70.5508C156.51 172.919 156.511 248.856 142.517 309.494Z" fill="#E6E6E6"/>
<path d="M517.517 117.5H198.517C196.793 117.5 195.14 116.815 193.921 115.596C192.702 114.377 192.017 112.724 192.017 111C192.017 109.276 192.702 107.623 193.921 106.404C195.14 105.185 196.793 104.5 198.517 104.5H517.517C519.241 104.5 520.894 105.185 522.113 106.404C523.332 107.623 524.017 109.276 524.017 111C524.017 112.724 523.332 114.377 522.113 115.596C520.894 116.815 519.241 117.5 517.517 117.5Z" fill="#E6E6E6"/>
<path d="M517.517 149H198.517C196.793 149 195.14 148.315 193.921 147.096C192.702 145.877 192.017 144.224 192.017 142.5C192.017 140.776 192.702 139.123 193.921 137.904C195.14 136.685 196.793 136 198.517 136H517.517C519.241 136 520.894 136.685 522.113 137.904C523.332 139.123 524.017 140.776 524.017 142.5C524.017 144.224 523.332 145.877 522.113 147.096C520.894 148.315 519.241 149 517.517 149Z" fill="#E6E6E6"/>
<path d="M517.517 180.5H198.517C196.793 180.5 195.14 179.815 193.921 178.596C192.702 177.377 192.017 175.724 192.017 174C192.017 172.276 192.702 170.623 193.921 169.404C195.14 168.185 196.793 167.5 198.517 167.5H517.517C519.241 167.5 520.894 168.185 522.113 169.404C523.332 170.623 524.017 172.276 524.017 174C524.017 175.724 523.332 177.377 522.113 178.596C520.894 179.815 519.241 180.5 517.517 180.5Z" fill="#E6E6E6"/>
<path d="M517.517 212H198.517C196.793 212 195.14 211.315 193.921 210.096C192.702 208.877 192.017 207.224 192.017 205.5C192.017 203.776 192.702 202.123 193.921 200.904C195.14 199.685 196.793 199 198.517 199H517.517C519.241 199 520.894 199.685 522.113 200.904C523.332 202.123 524.017 203.776 524.017 205.5C524.017 207.224 523.332 208.877 522.113 210.096C520.894 211.315 519.241 212 517.517 212Z" fill="#E6E6E6"/>
<path d="M517.517 243.5H198.517C196.793 243.5 195.14 242.815 193.921 241.596C192.702 240.377 192.017 238.724 192.017 237C192.017 235.276 192.702 233.623 193.921 232.404C195.14 231.185 196.793 230.5 198.517 230.5H517.517C519.241 230.5 520.894 231.185 522.113 232.404C523.332 233.623 524.017 235.276 524.017 237C524.017 238.724 523.332 240.377 522.113 241.596C520.894 242.815 519.241 243.5 517.517 243.5Z" fill="#E6E6E6"/>
<path d="M341.517 275H198.517C196.793 275 195.14 274.315 193.921 273.096C192.702 271.877 192.017 270.224 192.017 268.5C192.017 266.776 192.702 265.123 193.921 263.904C195.14 262.685 196.793 262 198.517 262H341.517C343.241 262 344.894 262.685 346.113 263.904C347.332 265.123 348.017 266.776 348.017 268.5C348.017 270.224 347.332 271.877 346.113 273.096C344.894 274.315 343.241 275 341.517 275Z" fill="#92140C"/>
<path d="M359.699 324.5H333.375C332.976 324.496 332.583 324.403 332.225 324.226C331.866 324.05 331.553 323.795 331.307 323.48C331.016 323.11 330.812 322.681 330.708 322.222C330.604 321.763 330.603 321.287 330.706 320.828L343.093 264.782C343.192 264.153 343.509 263.579 343.989 263.162C344.47 262.744 345.083 262.51 345.719 262.5C346.356 262.49 346.975 262.706 347.468 263.109C347.961 263.512 348.296 264.076 348.413 264.701L362.349 320.746C362.466 321.21 362.477 321.694 362.38 322.162C362.283 322.63 362.082 323.071 361.792 323.45C361.546 323.773 361.23 324.036 360.867 324.218C360.504 324.4 360.105 324.497 359.699 324.5Z" fill="#E6E6E6"/>
<path d="M690.517 345.5H32.517C28.9365 345.5 25.5028 344.078 22.971 341.546C20.4393 339.014 19.017 335.58 19.017 332C19.017 328.42 20.4393 324.986 22.971 322.454C25.5028 319.922 28.9365 318.5 32.517 318.5H690.517C694.097 318.5 697.531 319.922 700.063 322.454C702.595 324.986 704.017 328.42 704.017 332C704.017 335.58 702.595 339.014 700.063 341.546C697.531 344.078 694.097 345.5 690.517 345.5Z" fill="#F2F2F2"/>
<path d="M317.789 556.961C317.789 557.117 317.759 557.272 317.699 557.417C317.64 557.561 317.552 557.693 317.441 557.803C317.331 557.914 317.199 558.002 317.055 558.061C316.91 558.121 316.755 558.151 316.599 558.151H36.3089C35.9933 558.151 35.6906 558.025 35.4674 557.802C35.2443 557.579 35.1189 557.276 35.1189 556.961C35.1189 556.645 35.2443 556.343 35.4674 556.119C35.6906 555.896 35.9933 555.771 36.3089 555.771H316.599C316.755 555.77 316.91 555.801 317.055 555.86C317.199 555.92 317.331 556.008 317.441 556.118C317.552 556.229 317.64 556.36 317.699 556.505C317.759 556.65 317.789 556.804 317.789 556.961Z" fill="#CCCCCC"/>
<path d="M464.517 483.005H258.517C254.274 483.005 250.204 484.69 247.203 487.691C244.203 490.692 242.517 494.761 242.517 499.005C242.517 503.248 244.203 507.318 247.203 510.318C250.204 513.319 254.274 515.005 258.517 515.005H464.517C468.76 515.005 472.83 513.319 475.831 510.318C478.831 507.318 480.517 503.248 480.517 499.005C480.517 494.761 478.831 490.692 475.831 487.691C472.83 484.69 468.76 483.005 464.517 483.005Z" fill="#E6E6E6"/>
<path d="M146.048 410.867C146.631 409.841 146.982 408.699 147.076 407.523C147.17 406.347 147.005 405.164 146.592 404.058C146.18 402.953 145.53 401.951 144.688 401.124C143.847 400.296 142.834 399.664 141.721 399.27L140.74 380.849L129.4 378.716L131.152 404.709C130.614 406.622 130.797 408.666 131.666 410.453C132.535 412.24 134.029 413.646 135.865 414.405C137.701 415.164 139.752 415.223 141.629 414.571C143.505 413.919 145.078 412.601 146.048 410.867Z" fill="#FFB8B8"/>
<path d="M167.955 298.033C166.984 296.483 165.621 295.215 164.004 294.36C162.386 293.504 160.572 293.09 158.743 293.159C156.915 293.229 155.137 293.78 153.589 294.756C152.041 295.732 150.779 297.099 149.928 298.72L130.078 336.538C126.684 343.005 125.069 350.258 125.398 357.554L126.959 392.068C126.981 392.563 127.11 393.048 127.337 393.489C127.564 393.93 127.884 394.316 128.274 394.622C128.664 394.928 129.116 395.146 129.598 395.261C130.08 395.377 130.582 395.387 131.068 395.29L138.7 393.777C139.49 393.621 140.2 393.192 140.707 392.566C141.214 391.939 141.485 391.155 141.473 390.35L141.437 387.838C141.134 366.951 146.478 346.369 156.906 328.269L168.153 308.747C169.095 307.111 169.574 305.25 169.54 303.363C169.505 301.476 168.957 299.633 167.955 298.033Z" fill="#111D4A"/>
<path d="M203.003 549L212.489 548.999L217 511L203 511.001L203.003 549Z" fill="#FFB8B8"/>
<path d="M220.023 546H201V558H232C232 556.424 231.69 554.864 231.088 553.408C230.486 551.952 229.604 550.629 228.492 549.515C227.38 548.4 226.059 547.517 224.606 546.913C223.153 546.31 221.596 546 220.023 546Z" fill="#47465B"/>
<path d="M150.003 549L159.489 548.999L164 511L150 511.001L150.003 549Z" fill="#FFB8B8"/>
<path d="M167.023 546H148V558H179C179 556.424 178.69 554.864 178.088 553.408C177.486 551.952 176.604 550.629 175.492 549.515C174.38 548.4 173.059 547.517 171.606 546.913C170.153 546.31 168.596 546 167.023 546Z" fill="#47465B"/>
<path d="M178.5 279C166.626 279 157 269.598 157 258C157 246.402 166.626 237 178.5 237C190.374 237 200 246.402 200 258C200 269.598 190.374 279 178.5 279Z" fill="#FFB8B8"/>
<path d="M250.929 395.83C250.779 394.661 250.373 393.539 249.737 392.542C249.101 391.545 248.252 390.698 247.249 390.06C246.246 389.423 245.114 389.01 243.932 388.852C242.75 388.694 241.548 388.793 240.409 389.143L228.468 375L218 380.074L235.147 399.813C235.869 401.664 237.254 403.189 239.038 404.098C240.823 405.008 242.883 405.239 244.828 404.748C246.773 404.257 248.469 403.078 249.593 401.434C250.718 399.791 251.193 397.797 250.929 395.83Z" fill="#FFB8B8"/>
<path d="M173.332 278.995C170.11 279.064 166.91 278.457 163.942 277.216C160.975 275.974 158.306 274.126 156.112 271.791C153.918 269.457 152.248 266.69 151.212 263.672C150.176 260.654 149.798 257.453 150.102 254.28C150.406 251.107 151.385 248.034 152.976 245.262C154.566 242.49 156.732 240.082 159.33 238.197C161.928 236.312 164.9 234.992 168.051 234.324C171.202 233.656 174.46 233.655 177.611 234.321C182.319 231.494 187.791 229.591 193.277 230.075C198.762 230.559 204.187 233.78 206.238 238.835C208.289 243.89 206.086 250.553 200.985 252.608C197.715 253.925 194.023 253.286 190.533 252.755C187.044 252.224 183.237 251.877 180.2 253.658C177.163 255.439 175.798 260.214 178.518 262.441C179.96 263.668 180.989 265.3 181.47 267.12C181.95 268.941 181.858 270.862 181.206 272.63C179.839 276.126 176.108 278.935 173.332 278.995Z" fill="#47465B"/>
<path d="M146.789 394.354L143.001 537.447C142.989 537.924 143.075 538.398 143.255 538.841C143.436 539.283 143.706 539.683 144.049 540.016C144.392 540.349 144.801 540.608 145.249 540.777C145.698 540.945 146.176 541.02 146.655 540.995L159.135 540.362C159.931 540.321 160.689 540.01 161.282 539.479C161.875 538.949 162.267 538.232 162.392 537.448L177.236 444.508C177.299 444.111 177.5 443.747 177.804 443.481C178.107 443.215 178.495 443.063 178.899 443.05C179.303 443.038 179.7 443.166 180.019 443.413C180.339 443.659 180.562 444.01 180.65 444.403L200.743 533.887C200.85 534.365 201.058 534.815 201.353 535.208C201.649 535.6 202.024 535.925 202.455 536.162C202.886 536.399 203.363 536.542 203.854 536.582C204.344 536.622 204.838 536.558 205.302 536.394L217.687 535.641C218.404 535.387 219.017 534.907 219.433 534.273C219.849 533.64 220.045 532.888 219.991 532.133L209.18 393L146.789 394.354Z" fill="#47465B"/>
<path d="M141.183 327.057C139.101 305.39 155.061 285.792 176.813 284.251C186.185 283.587 200.735 283.349 205.531 295.611C219.98 332.547 194.687 331.65 203.401 363.652C212.116 395.654 219.813 397.488 207.855 399.799C195.898 402.109 142.127 415.751 144.335 393.226C145.692 379.381 143.259 348.669 141.183 327.057Z" fill="#111D4A"/>
<path d="M201.174 291.703C199.465 291.041 197.613 290.842 195.803 291.126C193.993 291.409 192.29 292.166 190.865 293.318C189.441 294.471 188.346 295.979 187.69 297.691C187.034 299.403 186.841 301.257 187.131 303.067L193.887 345.316C195.042 352.541 198.095 359.328 202.734 364.984L224.676 391.739C224.991 392.123 225.385 392.434 225.831 392.652C226.277 392.869 226.765 392.988 227.262 392.999C227.758 393.01 228.251 392.915 228.707 392.718C229.162 392.521 229.57 392.228 229.903 391.859L235.114 386.067C235.654 385.467 235.967 384.697 235.997 383.891C236.028 383.084 235.776 382.293 235.283 381.653L233.748 379.66C220.984 363.084 212.93 343.366 210.44 322.589L207.754 300.18C207.529 298.302 206.798 296.522 205.639 295.028C204.479 293.535 202.936 292.385 201.174 291.703Z" fill="#111D4A"/>
</g>
<defs>
<clipPath id="clip0_2_60">
<rect width="722.113" height="558.151" fill="white"/>
</clipPath>
</defs>
</svg>
